<?xml version="1.0" encoding="utf-8"?>
<!-- Generator: Adobe Illustrator 23.0.3, SVG Export Plug-In . SVG Version: 6.00 Build 0)  -->
<svg version="1.1" id="Layer_1" xmlns="http://www.w3.org/2000/svg" xmlns:xlink="http://www.w3.org/1999/xlink" x="0px" y="0px"
	 viewBox="0 0 498 424" style="enable-background:new 0 0 498 424;" xml:space="preserve">
<style type="text/css">
	.st0{fill:#C1BFC0;stroke:#FFFFFF;}
	.st1{fill:none;stroke:#FFFFFF;}
	.st2{fill:#EDEDED;}
	.st3{fill:#FFFF00;stroke:#000000;}
	.st4{fill:#FFFFFF;}
	.st5{fill:none;stroke:#000000;stroke-width:10;}
	.st6{stroke:#000000;}
	.st7{fill:none;stroke:#000000;stroke-width:5;}
</style>
<g>
	<g>
		<g>
			<path class="st0" d="M330,216.1c0,0,11,83,165.7-16c0,0,3.6-23-91.4-4.7c-95,18.3-73.4,2.4-73.4,2.4L330,216.1z"/>
			<path class="st0" d="M330.2,173.2c0,0,41.5-25.7,66.3-29.6s74.1-21.6,74.1-21.6s27.5,7.3,2.5,27.2c-25,19.8-57.5,41.4-139.8,37.2
				L330.2,173.2z"/>
		</g>
		<g>
			<path class="st1" d="M336.2,153.1"/>
			<path class="st1" d="M476.6,101.8"/>
			<path class="st1" d="M402.5,123.4"/>
		</g>
		<path class="st1" d="M345.4,173.9c0,0,88-6.7,134-46.7"/>
		<path class="st1" d="M364.1,155.4c0,0,2.5,15,15.5,13.5c0,0-10.5,13.5-1,16"/>
		<path class="st1" d="M382.6,146.4c0,0,4,18.3,25,16.5c0,0-12,14.5-1,17.5"/>
		<path class="st1" d="M406.1,141.4c0,0,3.8,15,23.5,13.5c0,0-5,16,4,17.5"/>
		<path class="st1" d="M431.6,134.4c0,0,3.7,11.7,23,10.5c0,0-3.5,14.5,4.5,14.5s8,0,8,0"/>
		<path class="st1" d="M450.6,127.9c0,0,3.1,7.8,19.5,7.1c0,0-2.5,6.9,4,11.9"/>
		<path class="st1" d="M343.2,216c0,0,35,31.1,152.5-15.9"/>
		<path class="st1" d="M373.2,201c0,0-1.5,25.5,18,25.5c0,0-26.1,4.4-12.7,22.4"/>
		<path class="st1" d="M344.5,203c0,0-1.5,20.9,18,20.9c0,0-26.1,3.6-12.7,18.4"/>
		<path class="st1" d="M397.8,196.9c-8.8,16.5,23.3,24.7,23.3,24.7s-22,15.3-8.7,22"/>
		<path class="st1" d="M425.1,194.3c0,0-4.7,20.7,18,22c0,0-12,13.3-5.3,15.3"/>
		<path class="st1" d="M448.4,190.9c0,0-3.3,20,21.3,18.7c0,0-11.3,6-6.7,9.3"/>
		<path class="st1" d="M471.1,187.9c0,0,2.7,17.6,12,16"/>
	</g>
	<g>
		<g>
			<path class="st0" d="M185.5,214c0,0-11,83-165.7-16c0,0-3.6-23,91.4-4.7c95,18.3,73.4,2.4,73.4,2.4L185.5,214z"/>
			<path class="st0" d="M185.3,171.1c0,0-41.5-25.7-66.3-29.6s-74.1-21.6-74.1-21.6s-27.5,7.3-2.5,27.2
				c25,19.8,57.5,41.4,139.8,37.2L185.3,171.1z"/>
		</g>
		<path class="st1" d="M170.1,171.9c0,0-88-6.7-134-46.7"/>
		<path class="st1" d="M151.4,153.4c0,0-2.5,15-15.5,13.5c0,0,10.5,13.5,1,16"/>
		<path class="st1" d="M132.9,144.4c0,0-4,18.3-25,16.5c0,0,12,14.5,1,17.5"/>
		<path class="st1" d="M109.4,139.4c0,0-3.8,15-23.5,13.5c0,0,5,16-4,17.5"/>
		<path class="st1" d="M83.9,132.4c0,0-3.7,11.7-23,10.5c0,0,3.5,14.5-4.5,14.5s-8,0-8,0"/>
		<path class="st1" d="M64.9,125.9c0,0-3.1,7.8-19.5,7.1c0,0,2.5,6.9-4,11.9"/>
		<path class="st1" d="M172.4,214c0,0-35,31.1-152.5-15.9"/>
		<path class="st1" d="M142.4,199c0,0,1.5,25.5-18,25.5c0,0,26.1,4.4,12.7,22.4"/>
		<path class="st1" d="M171,201c0,0,1.5,20.9-18,20.9c0,0,26.1,3.6,12.7,18.4"/>
		<path class="st1" d="M117.7,194.9c8.8,16.5-23.3,24.7-23.3,24.7s22,15.3,8.7,22"/>
		<path class="st1" d="M90.4,192.2c0,0,4.7,20.7-18,22c0,0,12,13.3,5.3,15.3"/>
		<path class="st1" d="M67.1,188.9c0,0,3.3,20-21.3,18.7c0,0,11.3,6,6.7,9.3"/>
		<path class="st1" d="M44.4,185.9c0,0-2.7,17.6-12,16"/>
	</g>
	<ellipse class="st2" cx="256.9" cy="373" rx="88.1" ry="46.5"/>
	<ellipse id="body" class="st3" cx="257" cy="224.5" rx="91.3" ry="128"/>
	<g>
		<ellipse cx="210.8" cy="166" rx="14.3" ry="18.2"/>
		<ellipse class="st4" cx="215.1" cy="159.7" rx="7.1" ry="9.1"/>
	</g>
	<g>
		<ellipse cx="308" cy="166" rx="14.3" ry="18.2"/>
		<ellipse class="st4" cx="312.3" cy="159.7" rx="7.1" ry="9.1"/>
	</g>
	<g>
		<line class="st5" x1="302.5" y1="324" x2="308.5" y2="386"/>
		<line class="st5" x1="306.5" y1="367" x2="318.5" y2="381"/>
	</g>
	<g>
		<line class="st5" x1="210.5" y1="324" x2="204.5" y2="386"/>
		<line class="st5" x1="206.5" y1="367" x2="194.5" y2="381"/>
	</g>
	<ellipse cx="318" cy="381" rx="17" ry="11.5"/>
	<ellipse cx="197" cy="381" rx="17" ry="11.5"/>
	<path class="st1" d="M336.4,160.7"/>
	<g>
		<circle class="st6" cx="200" cy="263.4" r="8.5"/>
		<circle class="st6" cx="224" cy="285.4" r="8.5"/>
		<circle class="st6" cx="200" cy="303.4" r="8.5"/>
		<circle class="st6" cx="313" cy="263.4" r="8.5"/>
		<circle class="st6" cx="289" cy="285.4" r="8.5"/>
		<circle class="st6" cx="241.8" cy="256.6" r="8.5"/>
		<circle class="st6" cx="281.8" cy="254.6" r="8.5"/>
		<circle class="st6" cx="259.8" cy="284.6" r="8.5"/>
		<circle class="st6" cx="242.3" cy="304.6" r="8.5"/>
		<circle class="st6" cx="283.8" cy="306.6" r="8.5"/>
		<circle class="st6" cx="313" cy="303.4" r="8.5"/>
	</g>
	<path class="st7" d="M240.9,191.5c0,0,15.8,7.2,36.2,0"/>
</g>
</svg>
