<?xml version="1.0" encoding="utf-8"?>
<!-- Generator: Adobe Illustrator 23.0.3, SVG Export Plug-In . SVG Version: 6.00 Build 0)  -->
<svg version="1.1" id="Layer_1" xmlns="http://www.w3.org/2000/svg" xmlns:xlink="http://www.w3.org/1999/xlink" x="0px" y="0px"
	 viewBox="0 0 501 424" style="enable-background:new 0 0 501 424;" xml:space="preserve">
<style type="text/css">
	.st0{fill:none;stroke:#000000;stroke-width:5;}
	.st1{fill:#C1BFC0;stroke:#FFFFFF;}
	.st2{fill:none;stroke:#FFFFFF;}
	.st3{fill:#EDEDED;}
	.st4{fill:#FFFF00;stroke:#000000;}
	.st5{clip-path:url(#SVGID_2_);}
	.st6{fill:#FFFFFF;}
	.st7{fill:none;stroke:#000000;stroke-width:10;}
	.st8{fill:none;stroke:#000000;stroke-width:7;}
</style>
<g>
	<g>
		<path class="st0" d="M469.3,259.7"/>
		<path class="st1" d="M336.2,170.7c0,0,34-30,65-4s4,101-56,103L336.2,170.7z"/>
		<path class="st2" d="M351.4,228.6c24.6,1.2,59.4-25.4,56-55.5"/>
		<path class="st2" d="M374.7,262c-0.3,0-0.6,0-0.8,0c-20.9-0.3-15.4-34.3-15.4-34.3l-5.7-5"/>
		<path class="st2" d="M391,255.6"/>
		<path class="st2" d="M374.8,223.3c0,0-4.4,25.9,9.8,31.3"/>
		<path class="st2" d="M405,245.9"/>
		<path class="st2" d="M388.8,213.6c0,0-3.9,22.6,7.3,30"/>
		<path class="st2" d="M416.4,233.3"/>
		<path class="st2" d="M400.1,200.9c0,0-3.4,19.9,5.4,28.5"/>
		<path class="st2" d="M424,213.6"/>
		<path class="st2" d="M379.1,156.6"/>
		<path class="st2" d="M412.3,209.7c-8.9-8.3-4.9-26.8-4.9-26.8"/>
		<path class="st2" d="M400.4,201.4c0,0-54.6-7.4-34.4-45.5"/>
		<path class="st2" d="M405.9,188.4c0,0-30.2-6.4-28.5-31.8"/>
		<path class="st2" d="M388.4,213.9c0,0-54.6-8.7-34.4-54"/>
		<path class="st2" d="M375.1,222.4c0,0-12.9-3.4-24.4-15.4"/>
		<path class="st2" d="M396.3,219.2"/>
	</g>
	<g>
		<path class="st1" d="M186,170.7c0,0-34-30-65-4s-4,101,56,103L186,170.7z"/>
		<path class="st2" d="M170.9,228.6c-24.6,1.2-59.4-25.4-56-55.5"/>
		<path class="st2" d="M147.6,262c0.3,0,0.6,0,0.8,0c20.9-0.3,15.4-34.3,15.4-34.3l5.7-5"/>
		<path class="st2" d="M131.2,255.6"/>
		<path class="st2" d="M147.5,223.3c0,0,4.4,25.9-9.8,31.3"/>
		<path class="st2" d="M117.2,245.9"/>
		<path class="st2" d="M133.5,213.6c0,0,3.9,22.6-7.3,30"/>
		<path class="st2" d="M105.9,233.3"/>
		<path class="st2" d="M122.2,200.9c0,0,3.4,19.9-5.4,28.5"/>
		<path class="st2" d="M98.2,213.6"/>
		<path class="st2" d="M143.1,156.6"/>
		<path class="st2" d="M110,209.7c8.9-8.3,4.9-26.8,4.9-26.8"/>
		<path class="st2" d="M121.9,201.4c0,0,54.6-7.4,34.4-45.5"/>
		<path class="st2" d="M116.4,188.4c0,0,30.2-6.4,28.5-31.8"/>
		<path class="st2" d="M133.9,213.9c0,0,54.6-8.7,34.4-54"/>
		<path class="st2" d="M147.1,222.4c0,0,12.9-3.4,24.4-15.4"/>
		<path class="st2" d="M126,219.2"/>
	</g>
	<ellipse class="st3" cx="261.2" cy="374" rx="88.1" ry="46.5"/>
	<ellipse id="body" class="st4" cx="261.2" cy="225.5" rx="91.3" ry="128"/>
	<g>
		<path class="st0" d="M304.2,126.5c0,0,18-32,43-42"/>
		<circle cx="347.2" cy="82.5" r="7"/>
	</g>
	<g>
		<path class="st0" d="M214.2,126.5c0,0-18-32-43-42"/>
		<circle cx="171.2" cy="82.5" r="7"/>
	</g>
	<g>
		<g>
			<defs>
				<ellipse id="SVGID_1_" cx="261.2" cy="223.5" rx="91.3" ry="128"/>
			</defs>
			<clipPath id="SVGID_2_">
				<use xlink:href="#SVGID_1_"  style="overflow:visible;"/>
			</clipPath>
			<g class="st5">
				<path d="M165.9,195.7c0,0,73.9,70.2,188,0v15.5c-114.1,70.2-188,0-188,0V195.7z"/>
				<path d="M165.9,239.2c0,0,73.9,70.2,188,0v15.5c-114.1,70.2-188,0-188,0V239.2z"/>
			</g>
		</g>
	</g>
	<path class="st0" d="M243.7,193.6c0,0,15.8,7.2,36.2,0"/>
	<g>
		<ellipse cx="215" cy="166.9" rx="14.3" ry="18.2"/>
		<ellipse class="st6" cx="219.3" cy="160.7" rx="7.1" ry="9.1"/>
	</g>
	<g>
		<ellipse cx="312.3" cy="166.9" rx="14.3" ry="18.2"/>
		<ellipse class="st6" cx="316.6" cy="160.7" rx="7.1" ry="9.1"/>
	</g>
	<g>
		<line class="st7" x1="306.7" y1="325" x2="312.7" y2="387"/>
		<line class="st7" x1="310.7" y1="368" x2="322.7" y2="382"/>
	</g>
	<g>
		<line class="st7" x1="214.7" y1="325" x2="208.7" y2="387"/>
		<line class="st7" x1="210.7" y1="368" x2="198.7" y2="382"/>
	</g>
	<ellipse cx="322.2" cy="382" rx="17" ry="11.5"/>
	<ellipse cx="201.2" cy="382" rx="17" ry="11.5"/>
	<path class="st2" d="M340.7,161.6"/>
	<g>
		<g>
			<path class="st8" d="M377.8,343.9c0,0-18-32-43-42"/>
			<path class="st8" d="M385.8,333.3c0,0-8.4-3.5-20.1-6"/>
		</g>
		<ellipse cx="375.1" cy="336.4" rx="17" ry="11.5"/>
	</g>
	<g>
		<g>
			<path class="st8" d="M148.8,343.9c0,0,18-32,43-42"/>
			<path class="st8" d="M140.7,333.3c0,0,8.4-3.5,20.1-6"/>
		</g>
		<ellipse cx="143.1" cy="338.4" rx="17" ry="11.5"/>
	</g>
	<g>
		<g>
			<path class="st8" d="M386.8,303.9c0,0-18-32-43-42"/>
			<path class="st8" d="M394.8,293.3c0,0-8.4-3.5-20.1-6"/>
		</g>
		<ellipse cx="384.1" cy="296.4" rx="17" ry="11.5"/>
	</g>
	<g>
		<g>
			<path class="st8" d="M143.8,303.9c0,0,18-32,43-42"/>
			<path class="st8" d="M135.7,293.3c0,0,8.4-3.5,20.1-6"/>
		</g>
		<ellipse cx="138.1" cy="298.4" rx="17" ry="11.5"/>
	</g>
</g>
</svg>
