<?xml version="1.0" encoding="utf-8"?>
<!-- Generator: Adobe Illustrator 23.0.3, SVG Export Plug-In . SVG Version: 6.00 Build 0)  -->
<svg version="1.1" id="Layer_1" xmlns="http://www.w3.org/2000/svg" xmlns:xlink="http://www.w3.org/1999/xlink" x="0px" y="0px"
	 viewBox="0 0 498 424" style="enable-background:new 0 0 498 424;" xml:space="preserve">
<style type="text/css">
	.st0{fill:none;stroke:#000000;stroke-width:5;}
	.st1{fill:#C1BFC0;stroke:#FFFFFF;}
	.st2{fill:none;stroke:#FFFFFF;}
	.st3{fill:#EDEDED;}
	.st4{fill:#FFFF00;stroke:#000000;}
	.st5{fill:#FFFFFF;}
	.st6{fill:none;stroke:#000000;stroke-width:10;}
	.st7{stroke:#000000;}
</style>
<g id="dots">
	<g>
		<path class="st0" d="M441,218.1"/>
		<path class="st1" d="M307.9,129.2c0,0,34-30,65-4s4,101-56,103L307.9,129.2z"/>
		<path class="st2" d="M323,187.1c24.6,1.2,59.4-25.4,56-55.5"/>
		<path class="st2" d="M346.4,220.4c-0.3,0-0.6,0-0.8,0c-20.9-0.3-15.4-34.3-15.4-34.3l-5.7-5"/>
		<path class="st2" d="M362.7,214.1"/>
		<path class="st2" d="M346.5,181.7c0,0-4.4,25.9,9.8,31.3"/>
		<path class="st2" d="M376.7,204.4"/>
		<path class="st2" d="M360.5,172.1c0,0-3.9,22.6,7.3,30"/>
		<path class="st2" d="M388,191.7"/>
		<path class="st2" d="M371.8,159.4c0,0-3.4,19.9,5.4,28.5"/>
		<path class="st2" d="M395.7,172.1"/>
		<path class="st2" d="M350.8,115.1"/>
		<path class="st2" d="M383.9,168.2c-8.9-8.3-4.9-26.8-4.9-26.8"/>
		<path class="st2" d="M372,159.8c0,0-54.6-7.4-34.4-45.5"/>
		<path class="st2" d="M377.5,146.8c0,0-30.2-6.4-28.5-31.8"/>
		<path class="st2" d="M360,172.3c0,0-54.6-8.7-34.4-54"/>
		<path class="st2" d="M346.8,180.8c0,0-12.9-3.4-24.4-15.4"/>
		<path class="st2" d="M367.9,177.7"/>
	</g>
	<g>
		<path class="st1" d="M157.7,129.2c0,0-34-30-65-4s-4,101,56,103L157.7,129.2z"/>
		<path class="st2" d="M142.6,187.1c-24.6,1.2-59.4-25.4-56-55.5"/>
		<path class="st2" d="M119.3,220.4c0.3,0,0.6,0,0.8,0c20.9-0.3,15.4-34.3,15.4-34.3l5.7-5"/>
		<path class="st2" d="M102.9,214.1"/>
		<path class="st2" d="M119.2,181.7c0,0,4.4,25.9-9.8,31.3"/>
		<path class="st2" d="M88.9,204.4"/>
		<path class="st2" d="M105.2,172.1c0,0,3.9,22.6-7.3,30"/>
		<path class="st2" d="M77.6,191.7"/>
		<path class="st2" d="M93.9,159.4c0,0,3.4,19.9-5.4,28.5"/>
		<path class="st2" d="M69.9,172.1"/>
		<path class="st2" d="M114.8,115.1"/>
		<path class="st2" d="M81.7,168.2c8.9-8.3,4.9-26.8,4.9-26.8"/>
		<path class="st2" d="M93.6,159.8c0,0,54.6-7.4,34.4-45.5"/>
		<path class="st2" d="M88.1,146.8c0,0,30.2-6.4,28.5-31.8"/>
		<path class="st2" d="M105.6,172.3c0,0,54.6-8.7,34.4-54"/>
		<path class="st2" d="M118.8,180.8c0,0,12.9-3.4,24.4-15.4"/>
		<path class="st2" d="M97.7,177.7"/>
	</g>
	<ellipse class="st3" cx="232.8" cy="332.5" rx="88.1" ry="46.5"/>
	<ellipse id="body" class="st4" cx="232.9" cy="183.9" rx="91.3" ry="128"/>
	<g>
		<path class="st0" d="M275.9,84.9c0,0,18-32,43-42"/>
		<circle cx="318.9" cy="40.9" r="7"/>
	</g>
	<g>
		<path class="st0" d="M185.9,84.9c0,0-18-32-43-42"/>
		<circle cx="142.9" cy="40.9" r="7"/>
	</g>
	<g>
		<ellipse cx="186.7" cy="125.4" rx="14.3" ry="18.2"/>
		<ellipse class="st5" cx="191" cy="119.1" rx="7.1" ry="9.1"/>
	</g>
	<g>
		<ellipse cx="284" cy="125.4" rx="14.3" ry="18.2"/>
		<ellipse class="st5" cx="288.3" cy="119.1" rx="7.1" ry="9.1"/>
	</g>
	<g>
		<line class="st6" x1="278.4" y1="283.4" x2="284.4" y2="345.4"/>
		<line class="st6" x1="282.4" y1="326.4" x2="294.4" y2="340.4"/>
	</g>
	<g>
		<line class="st6" x1="186.4" y1="283.4" x2="180.4" y2="345.4"/>
		<line class="st6" x1="182.4" y1="326.4" x2="170.4" y2="340.4"/>
	</g>
	<ellipse cx="293.9" cy="340.4" rx="17" ry="11.5"/>
	<ellipse cx="172.9" cy="340.4" rx="17" ry="11.5"/>
	<path class="st2" d="M312.3,120.1"/>
	<g>
		<circle class="st7" cx="175" cy="221" r="8.5"/>
		<circle class="st7" cx="199" cy="243" r="8.5"/>
		<circle class="st7" cx="175" cy="261" r="8.5"/>
		<circle class="st7" cx="288" cy="221" r="8.5"/>
		<circle class="st7" cx="264" cy="243" r="8.5"/>
		<circle class="st7" cx="216.8" cy="214.2" r="8.5"/>
		<circle class="st7" cx="256.8" cy="212.2" r="8.5"/>
		<circle class="st7" cx="234.8" cy="242.2" r="8.5"/>
		<circle class="st7" cx="217.3" cy="262.2" r="8.5"/>
		<circle class="st7" cx="258.8" cy="264.2" r="8.5"/>
		<circle class="st7" cx="288" cy="261" r="8.5"/>
	</g>
	<path class="st0" d="M215.8,151.8c0,0,15.8,7.2,36.2,0"/>
</g>
</svg>
