<?xml version="1.0" encoding="utf-8"?>
<!-- Generator: Adobe Illustrator 23.0.3, SVG Export Plug-In . SVG Version: 6.00 Build 0)  -->
<svg version="1.1" id="Layer_1" xmlns="http://www.w3.org/2000/svg" xmlns:xlink="http://www.w3.org/1999/xlink" x="0px" y="0px"
	 viewBox="0 0 498 424" style="enable-background:new 0 0 498 424;" xml:space="preserve">
<style type="text/css">
	.st0{fill:#C1BFC0;stroke:#FFFFFF;}
	.st1{fill:none;stroke:#FFFFFF;}
	.st2{fill:#EDEDED;}
	.st3{fill:#FFFF00;stroke:#000000;}
	.st4{clip-path:url(#SVGID_2_);}
	.st5{fill:none;stroke:#000000;stroke-width:5;}
	.st6{fill:#FFFFFF;}
	.st7{fill:none;stroke:#000000;stroke-width:10;}
</style>
<g>
	<g>
		<g>
			<path class="st0" d="M327.6,217.6c0,0,11,83,165.7-16c0,0,3.6-23-91.4-4.7c-95,18.3-73.4,2.4-73.4,2.4L327.6,217.6z"/>
			<path class="st0" d="M327.8,174.8c0,0,41.5-25.7,66.3-29.6c24.8-3.9,74.1-21.6,74.1-21.6s27.5,7.3,2.5,27.2
				c-25,19.8-57.5,41.4-139.8,37.2L327.8,174.8z"/>
		</g>
		<g>
			<path class="st1" d="M333.8,154.6"/>
			<path class="st1" d="M474.2,103.3"/>
			<path class="st1" d="M400,124.9"/>
		</g>
		<path class="st1" d="M343,175.5c0,0,88-6.7,134-46.7"/>
		<path class="st1" d="M361.7,157c0,0,2.5,15,15.5,13.5c0,0-10.5,13.5-1,16"/>
		<path class="st1" d="M380.2,148c0,0,4,18.3,25,16.5c0,0-12,14.5-1,17.5"/>
		<path class="st1" d="M403.7,143c0,0,3.8,15,23.5,13.5c0,0-5,16,4,17.5"/>
		<path class="st1" d="M429.2,136c0,0,3.7,11.7,23,10.5c0,0-3.5,14.5,4.5,14.5s8,0,8,0"/>
		<path class="st1" d="M448.2,129.5c0,0,3.1,7.8,19.5,7.1c0,0-2.5,6.9,4,11.9"/>
		<path class="st1" d="M340.7,217.6c0,0,35,31.1,152.5-15.9"/>
		<path class="st1" d="M370.7,202.6c0,0-1.5,25.5,18,25.5c0,0-26.1,4.4-12.7,22.4"/>
		<path class="st1" d="M342.1,204.6c0,0-1.5,20.9,18,20.9c0,0-26.1,3.6-12.7,18.4"/>
		<path class="st1" d="M395.4,198.5c-8.8,16.5,23.3,24.7,23.3,24.7s-22,15.3-8.7,22"/>
		<path class="st1" d="M422.7,195.8c0,0-4.7,20.7,18,22c0,0-12,13.3-5.3,15.3"/>
		<path class="st1" d="M446,192.5c0,0-3.3,20,21.3,18.7c0,0-11.3,6-6.7,9.3"/>
		<path class="st1" d="M468.7,189.5c0,0,2.7,17.6,12,16"/>
	</g>
	<g>
		<g>
			<path class="st0" d="M183.1,215.5c0,0-11,83-165.7-16c0,0-3.6-23,91.4-4.7c95,18.3,73.4,2.4,73.4,2.4L183.1,215.5z"/>
			<path class="st0" d="M182.9,172.7c0,0-41.5-25.7-66.3-29.6c-24.8-3.9-74.1-21.6-74.1-21.6s-27.5,7.3-2.5,27.2
				c25,19.8,57.5,41.4,139.8,37.2L182.9,172.7z"/>
		</g>
		<path class="st1" d="M167.7,173.4c0,0-88-6.7-134-46.7"/>
		<path class="st1" d="M149,154.9c0,0-2.5,15-15.5,13.5c0,0,10.5,13.5,1,16"/>
		<path class="st1" d="M130.5,145.9c0,0-4,18.3-25,16.5c0,0,12,14.5,1,17.5"/>
		<path class="st1" d="M107,140.9c0,0-3.8,15-23.5,13.5c0,0,5,16-4,17.5"/>
		<path class="st1" d="M81.5,133.9c0,0-3.7,11.7-23,10.5c0,0,3.5,14.5-4.5,14.5s-8,0-8,0"/>
		<path class="st1" d="M62.5,127.4c0,0-3.1,7.8-19.5,7.1c0,0,2.5,6.9-4,11.9"/>
		<path class="st1" d="M169.9,215.5c0,0-35,31.1-152.5-15.9"/>
		<path class="st1" d="M139.9,200.5c0,0,1.5,25.5-18,25.5c0,0,26.1,4.4,12.7,22.4"/>
		<path class="st1" d="M168.6,202.5c0,0,1.5,20.9-18,20.9c0,0,26.1,3.6,12.7,18.4"/>
		<path class="st1" d="M115.3,196.4c8.8,16.5-23.3,24.7-23.3,24.7s22,15.3,8.7,22"/>
		<path class="st1" d="M88,193.7c0,0,4.7,20.7-18,22c0,0,12,13.3,5.3,15.3"/>
		<path class="st1" d="M64.7,190.4c0,0,3.3,20-21.3,18.7c0,0,11.3,6,6.7,9.3"/>
		<path class="st1" d="M42,187.4c0,0-2.7,17.6-12,16"/>
	</g>
	<ellipse class="st2" cx="254.5" cy="374.6" rx="88.1" ry="46.5"/>
	<ellipse id="body" class="st3" cx="254.5" cy="226" rx="91.3" ry="128"/>
	<g>
		<g>
			<defs>
				<ellipse id="SVGID_1_" cx="254.5" cy="224" rx="91.3" ry="128"/>
			</defs>
			<clipPath id="SVGID_2_">
				<use xlink:href="#SVGID_1_"  style="overflow:visible;"/>
			</clipPath>
			<g class="st4">
				<path d="M159.2,196.3c0,0,73.9,70.2,188,0v15.5c-114.1,70.2-188,0-188,0V196.3z"/>
				<path d="M159.2,239.8c0,0,73.9,70.2,188,0v15.5c-114.1,70.2-188,0-188,0V239.8z"/>
			</g>
		</g>
	</g>
	<path class="st5" d="M236.9,193c0,0,15.8,7.2,36.2,0"/>
	<g>
		<ellipse cx="208.4" cy="167.5" rx="14.3" ry="18.2"/>
		<ellipse class="st6" cx="212.6" cy="161.2" rx="7.1" ry="9.1"/>
	</g>
	<g>
		<ellipse cx="305.6" cy="167.5" rx="14.3" ry="18.2"/>
		<ellipse class="st6" cx="309.9" cy="161.2" rx="7.1" ry="9.1"/>
	</g>
	<g>
		<line class="st7" x1="300" y1="325.5" x2="306" y2="387.5"/>
		<line class="st7" x1="304" y1="368.5" x2="316" y2="382.5"/>
	</g>
	<g>
		<line class="st7" x1="208" y1="325.5" x2="202" y2="387.5"/>
		<line class="st7" x1="204" y1="368.5" x2="192" y2="382.5"/>
	</g>
	<ellipse cx="315.5" cy="382.5" rx="17" ry="11.5"/>
	<ellipse cx="194.5" cy="382.5" rx="17" ry="11.5"/>
	<path class="st1" d="M334,162.2"/>
</g>
</svg>
