<?xml version="1.0" encoding="utf-8"?>
<!-- Generator: Adobe Illustrator 23.0.3, SVG Export Plug-In . SVG Version: 6.00 Build 0)  -->
<svg version="1.1" id="Layer_1" xmlns="http://www.w3.org/2000/svg" xmlns:xlink="http://www.w3.org/1999/xlink" x="0px" y="0px"
	 viewBox="0 0 498 424" style="enable-background:new 0 0 498 424;" xml:space="preserve">
<style type="text/css">
	.st0{fill:#C1BFC0;stroke:#FFFFFF;}
	.st1{fill:none;stroke:#FFFFFF;}
	.st2{fill:#EDEDED;}
	.st3{fill:#FFFF00;stroke:#000000;}
	.st4{fill:none;stroke:#000000;stroke-width:5;}
	.st5{fill:#FFFFFF;}
	.st6{fill:none;stroke:#000000;stroke-width:10;}
	.st7{fill:none;stroke:#000000;stroke-width:7;}
	.st8{stroke:#000000;}
</style>
<g>
	<g>
		<g>
			<path class="st0" d="M325.2,217c0,0,11,83,165.7-16c0,0,3.6-23-91.4-4.7c-95,18.3-73.4,2.4-73.4,2.4L325.2,217z"/>
			<path class="st0" d="M325.5,174.2c0,0,41.5-25.7,66.3-29.6c24.8-3.9,74.1-21.6,74.1-21.6s27.5,7.3,2.5,27.2
				c-25,19.8-57.5,41.4-139.8,37.2L325.5,174.2z"/>
		</g>
		<g>
			<path class="st1" d="M331.4,154"/>
			<path class="st1" d="M471.8,102.8"/>
			<path class="st1" d="M397.7,124.4"/>
		</g>
		<path class="st1" d="M340.7,174.9c0,0,88-6.7,134-46.7"/>
		<path class="st1" d="M359.3,156.4c0,0,2.5,15,15.5,13.5c0,0-10.5,13.5-1,16"/>
		<path class="st1" d="M377.8,147.4c0,0,4,18.3,25,16.5c0,0-12,14.5-1,17.5"/>
		<path class="st1" d="M401.3,142.4c0,0,3.8,15,23.5,13.5c0,0-5,16,4,17.5"/>
		<path class="st1" d="M426.8,135.4c0,0,3.7,11.7,23,10.5c0,0-3.5,14.5,4.5,14.5s8,0,8,0"/>
		<path class="st1" d="M445.8,128.9c0,0,3.1,7.8,19.5,7.1c0,0-2.5,6.9,4,11.9"/>
		<path class="st1" d="M338.4,217c0,0,35,31.1,152.5-15.9"/>
		<path class="st1" d="M368.4,202c0,0-1.5,25.5,18,25.5c0,0-26.1,4.4-12.7,22.4"/>
		<path class="st1" d="M339.7,204c0,0-1.5,20.9,18,20.9c0,0-26.1,3.6-12.7,18.4"/>
		<path class="st1" d="M393,197.9c-8.8,16.5,23.3,24.7,23.3,24.7s-22,15.3-8.7,22"/>
		<path class="st1" d="M420.3,195.2c0,0-4.7,20.7,18,22c0,0-12,13.3-5.3,15.3"/>
		<path class="st1" d="M443.7,191.9c0,0-3.3,20,21.3,18.7c0,0-11.3,6-6.7,9.3"/>
		<path class="st1" d="M466.3,188.9c0,0,2.7,17.6,12,16"/>
	</g>
	<g>
		<g>
			<path class="st0" d="M180.8,214.9c0,0-11,83-165.7-16c0,0-3.6-23,91.4-4.7c95,18.3,73.4,2.4,73.4,2.4L180.8,214.9z"/>
			<path class="st0" d="M180.5,172.1c0,0-41.5-25.7-66.3-29.6s-74.1-21.6-74.1-21.6s-27.5,7.3-2.5,27.2
				c25,19.8,57.5,41.4,139.8,37.2L180.5,172.1z"/>
		</g>
		<path class="st1" d="M165.3,172.8c0,0-88-6.7-134-46.7"/>
		<path class="st1" d="M146.7,154.3c0,0-2.5,15-15.5,13.5c0,0,10.5,13.5,1,16"/>
		<path class="st1" d="M128.2,145.3c0,0-4,18.3-25,16.5c0,0,12,14.5,1,17.5"/>
		<path class="st1" d="M104.7,140.3c0,0-3.8,15-23.5,13.5c0,0,5,16-4,17.5"/>
		<path class="st1" d="M79.2,133.3c0,0-3.7,11.7-23,10.5c0,0,3.5,14.5-4.5,14.5s-8,0-8,0"/>
		<path class="st1" d="M60.2,126.8c0,0-3.1,7.8-19.5,7.1c0,0,2.5,6.9-4,11.9"/>
		<path class="st1" d="M167.6,214.9c0,0-35,31.1-152.5-15.9"/>
		<path class="st1" d="M137.6,199.9c0,0,1.5,25.5-18,25.5c0,0,26.1,4.4,12.7,22.4"/>
		<path class="st1" d="M166.3,201.9c0,0,1.5,20.9-18,20.9c0,0,26.1,3.6,12.7,18.4"/>
		<path class="st1" d="M113,195.8c8.8,16.5-23.3,24.7-23.3,24.7s22,15.3,8.7,22"/>
		<path class="st1" d="M85.7,193.2c0,0,4.7,20.7-18,22c0,0,12,13.3,5.3,15.3"/>
		<path class="st1" d="M62.3,189.8c0,0,3.3,20-21.3,18.7c0,0,11.3,6,6.7,9.3"/>
		<path class="st1" d="M39.7,186.8c0,0-2.7,17.6-12,16"/>
	</g>
	<ellipse class="st2" cx="252.1" cy="374" rx="88.1" ry="46.5"/>
	<ellipse id="body" class="st3" cx="252.2" cy="225.5" rx="91.3" ry="128"/>
	<g>
		<path class="st4" d="M295.2,126.5c0,0,18-32,43-42"/>
		<circle cx="338.2" cy="82.5" r="7"/>
	</g>
	<g>
		<path class="st4" d="M205.2,126.5c0,0-18-32-43-42"/>
		<circle cx="162.2" cy="82.5" r="7"/>
	</g>
	<g>
		<ellipse cx="206" cy="166.9" rx="14.3" ry="18.2"/>
		<ellipse class="st5" cx="210.3" cy="160.7" rx="7.1" ry="9.1"/>
	</g>
	<g>
		<ellipse cx="303.3" cy="166.9" rx="14.3" ry="18.2"/>
		<ellipse class="st5" cx="307.6" cy="160.7" rx="7.1" ry="9.1"/>
	</g>
	<g>
		<line class="st6" x1="297.7" y1="325" x2="303.7" y2="387"/>
		<line class="st6" x1="301.7" y1="368" x2="313.7" y2="382"/>
	</g>
	<g>
		<line class="st6" x1="205.7" y1="325" x2="199.7" y2="387"/>
		<line class="st6" x1="201.7" y1="368" x2="189.7" y2="382"/>
	</g>
	<ellipse cx="313.2" cy="382" rx="17" ry="11.5"/>
	<ellipse cx="192.2" cy="382" rx="17" ry="11.5"/>
	<path class="st1" d="M331.6,161.6"/>
	<g>
		<g>
			<path class="st7" d="M364,339c0,0-18-32-43-42"/>
			<path class="st7" d="M372,328.4c0,0-8.4-3.5-20.1-6"/>
		</g>
		<ellipse cx="361.2" cy="331.5" rx="17" ry="11.5"/>
	</g>
	<g>
		<g>
			<path class="st7" d="M139.9,339c0,0,18-32,43-42"/>
			<path class="st7" d="M131.9,328.4c0,0,8.4-3.5,20.1-6"/>
		</g>
		<ellipse cx="134.2" cy="333.5" rx="17" ry="11.5"/>
	</g>
	<g>
		<g>
			<path class="st7" d="M381,305c0,0-18-32-43-42"/>
			<path class="st7" d="M389,294.4c0,0-8.4-3.5-20.1-6"/>
		</g>
		<ellipse cx="378.2" cy="297.5" rx="17" ry="11.5"/>
	</g>
	<g>
		<g>
			<path class="st7" d="M126.9,299c0,0,18-32,43-42"/>
			<path class="st7" d="M118.9,288.4c0,0,8.4-3.5,20.1-6"/>
		</g>
		<ellipse cx="121.2" cy="293.5" rx="17" ry="11.5"/>
	</g>
	<g>
		<circle class="st8" cx="195.5" cy="260.6" r="8.5"/>
		<circle class="st8" cx="219.5" cy="282.6" r="8.5"/>
		<circle class="st8" cx="195.5" cy="300.6" r="8.5"/>
		<circle class="st8" cx="308.5" cy="260.6" r="8.5"/>
		<circle class="st8" cx="284.5" cy="282.6" r="8.5"/>
		<circle class="st8" cx="237.3" cy="253.8" r="8.5"/>
		<circle class="st8" cx="277.3" cy="251.8" r="8.5"/>
		<circle class="st8" cx="255.3" cy="281.8" r="8.5"/>
		<circle class="st8" cx="237.8" cy="301.8" r="8.5"/>
		<circle class="st8" cx="279.3" cy="303.8" r="8.5"/>
		<circle class="st8" cx="308.5" cy="300.6" r="8.5"/>
	</g>
	<path class="st4" d="M234.9,192.8c0,0,15.8,7.2,36.2,0"/>
</g>
</svg>
