<?xml version="1.0" encoding="utf-8"?>
<!-- Generator: Adobe Illustrator 23.0.3, SVG Export Plug-In . SVG Version: 6.00 Build 0)  -->
<svg version="1.1" id="Layer_1" xmlns="http://www.w3.org/2000/svg" xmlns:xlink="http://www.w3.org/1999/xlink" x="0px" y="0px"
	 viewBox="0 0 498 424" style="enable-background:new 0 0 498 424;" xml:space="preserve">
<style type="text/css">
	.st0{fill:#C1BFC0;stroke:#FFFFFF;}
	.st1{fill:none;stroke:#FFFFFF;}
	.st2{fill:#EDEDED;}
	.st3{fill:#FFFF00;stroke:#000000;}
	.st4{fill:#FFFFFF;}
	.st5{fill:none;stroke:#000000;stroke-width:10;}
	.st6{fill:none;stroke:#000000;stroke-width:7;}
	.st7{stroke:#000000;}
	.st8{fill:none;stroke:#000000;stroke-width:5;}
</style>
<g>
	<g>
		<g>
			<path class="st0" d="M325,215.8c0,0,11,83,165.7-16c0,0,3.6-23-91.4-4.7c-95,18.3-73.4,2.4-73.4,2.4L325,215.8z"/>
			<path class="st0" d="M325.2,173c0,0,41.5-25.7,66.3-29.6c24.8-3.9,74.1-21.6,74.1-21.6s27.5,7.3,2.5,27.2
				c-25,19.8-57.5,41.4-139.8,37.2L325.2,173z"/>
		</g>
		<g>
			<path class="st1" d="M331.1,152.8"/>
			<path class="st1" d="M471.6,101.5"/>
			<path class="st1" d="M397.4,123.1"/>
		</g>
		<path class="st1" d="M340.4,173.7c0,0,88-6.7,134-46.7"/>
		<path class="st1" d="M359.1,155.2c0,0,2.5,15,15.5,13.5c0,0-10.5,13.5-1,16"/>
		<path class="st1" d="M377.6,146.2c0,0,4,18.3,25,16.5c0,0-12,14.5-1,17.5"/>
		<path class="st1" d="M401.1,141.2c0,0,3.8,15,23.5,13.5c0,0-5,16,4,17.5"/>
		<path class="st1" d="M426.6,134.2c0,0,3.7,11.7,23,10.5c0,0-3.5,14.5,4.5,14.5s8,0,8,0"/>
		<path class="st1" d="M445.6,127.7c0,0,3.1,7.8,19.5,7.1c0,0-2.5,6.9,4,11.9"/>
		<path class="st1" d="M338.1,215.8c0,0,35,31.1,152.5-15.9"/>
		<path class="st1" d="M368.1,200.8c0,0-1.5,25.5,18,25.5c0,0-26.1,4.4-12.7,22.4"/>
		<path class="st1" d="M339.5,202.8c0,0-1.5,20.9,18,20.9c0,0-26.1,3.6-12.7,18.4"/>
		<path class="st1" d="M392.7,196.7c-8.8,16.5,23.3,24.7,23.3,24.7s-22,15.3-8.7,22"/>
		<path class="st1" d="M420.1,194c0,0-4.7,20.7,18,22c0,0-12,13.3-5.3,15.3"/>
		<path class="st1" d="M443.4,190.7c0,0-3.3,20,21.3,18.7c0,0-11.3,6-6.7,9.3"/>
		<path class="st1" d="M466.1,187.7c0,0,2.7,17.6,12,16"/>
	</g>
	<g>
		<g>
			<path class="st0" d="M180.5,213.7c0,0-11,83-165.7-16c0,0-3.6-23,91.4-4.7c95,18.3,73.4,2.4,73.4,2.4L180.5,213.7z"/>
			<path class="st0" d="M180.3,170.9c0,0-41.5-25.7-66.3-29.6c-24.8-3.9-74.1-21.6-74.1-21.6s-27.5,7.3-2.5,27.2
				c25,19.8,57.5,41.4,139.8,37.2L180.3,170.9z"/>
		</g>
		<path class="st1" d="M165.1,171.6c0,0-88-6.7-134-46.7"/>
		<path class="st1" d="M146.4,153.1c0,0-2.5,15-15.5,13.5c0,0,10.5,13.5,1,16"/>
		<path class="st1" d="M127.9,144.1c0,0-4,18.3-25,16.5c0,0,12,14.5,1,17.5"/>
		<path class="st1" d="M104.4,139.1c0,0-3.8,15-23.5,13.5c0,0,5,16-4,17.5"/>
		<path class="st1" d="M78.9,132.1c0,0-3.7,11.7-23,10.5c0,0,3.5,14.5-4.5,14.5s-8,0-8,0"/>
		<path class="st1" d="M59.9,125.6c0,0-3.1,7.8-19.5,7.1c0,0,2.5,6.9-4,11.9"/>
		<path class="st1" d="M167.3,213.7c0,0-35,31.1-152.5-15.9"/>
		<path class="st1" d="M137.3,198.7c0,0,1.5,25.5-18,25.5c0,0,26.1,4.4,12.7,22.4"/>
		<path class="st1" d="M166,200.7c0,0,1.5,20.9-18,20.9c0,0,26.1,3.6,12.7,18.4"/>
		<path class="st1" d="M112.7,194.6c8.8,16.5-23.3,24.7-23.3,24.7s22,15.3,8.7,22"/>
		<path class="st1" d="M85.4,191.9c0,0,4.7,20.7-18,22c0,0,12,13.3,5.3,15.3"/>
		<path class="st1" d="M62.1,188.6c0,0,3.3,20-21.3,18.7c0,0,11.3,6,6.7,9.3"/>
		<path class="st1" d="M39.4,185.6c0,0-2.7,17.6-12,16"/>
	</g>
	<ellipse class="st2" cx="251.9" cy="372.8" rx="88.1" ry="46.5"/>
	<ellipse id="body" class="st3" cx="251.9" cy="224.2" rx="91.3" ry="128"/>
	<g>
		<ellipse cx="205.7" cy="165.7" rx="14.3" ry="18.2"/>
		<ellipse class="st4" cx="210" cy="159.5" rx="7.1" ry="9.1"/>
	</g>
	<g>
		<ellipse cx="303" cy="165.7" rx="14.3" ry="18.2"/>
		<ellipse class="st4" cx="307.3" cy="159.5" rx="7.1" ry="9.1"/>
	</g>
	<g>
		<line class="st5" x1="297.4" y1="323.7" x2="303.4" y2="385.7"/>
		<line class="st5" x1="301.4" y1="366.7" x2="313.4" y2="380.7"/>
	</g>
	<g>
		<line class="st5" x1="205.4" y1="323.7" x2="199.4" y2="385.7"/>
		<line class="st5" x1="201.4" y1="366.7" x2="189.4" y2="380.7"/>
	</g>
	<ellipse cx="312.9" cy="380.7" rx="17" ry="11.5"/>
	<ellipse cx="191.9" cy="380.7" rx="17" ry="11.5"/>
	<path class="st1" d="M331.4,160.4"/>
	<g>
		<g>
			<path class="st6" d="M363.7,337.8c0,0-18-32-43-42"/>
			<path class="st6" d="M371.7,327.2c0,0-8.4-3.5-20.1-6"/>
		</g>
		<ellipse cx="360.9" cy="330.2" rx="17" ry="11.5"/>
	</g>
	<g>
		<g>
			<path class="st6" d="M139.6,337.8c0,0,18-32,43-42"/>
			<path class="st6" d="M131.6,327.2c0,0,8.4-3.5,20.1-6"/>
		</g>
		<ellipse cx="133.9" cy="332.2" rx="17" ry="11.5"/>
	</g>
	<g>
		<g>
			<path class="st6" d="M380.7,303.8c0,0-18-32-43-42"/>
			<path class="st6" d="M388.7,293.2c0,0-8.4-3.5-20.1-6"/>
		</g>
		<ellipse cx="377.9" cy="296.2" rx="17" ry="11.5"/>
	</g>
	<g>
		<g>
			<path class="st6" d="M126.6,297.8c0,0,18-32,43-42"/>
			<path class="st6" d="M118.6,287.2c0,0,8.4-3.5,20.1-6"/>
		</g>
		<ellipse cx="120.9" cy="292.2" rx="17" ry="11.5"/>
	</g>
	<g>
		<circle class="st7" cx="195.2" cy="259.4" r="8.5"/>
		<circle class="st7" cx="219.2" cy="281.4" r="8.5"/>
		<circle class="st7" cx="195.2" cy="299.4" r="8.5"/>
		<circle class="st7" cx="308.2" cy="259.4" r="8.5"/>
		<circle class="st7" cx="284.2" cy="281.4" r="8.5"/>
		<circle class="st7" cx="237" cy="252.6" r="8.5"/>
		<circle class="st7" cx="277" cy="250.6" r="8.5"/>
		<ellipse transform="matrix(0.1602 -0.9871 0.9871 0.1602 -62.793 487.3957)" class="st7" cx="255" cy="280.6" rx="8.5" ry="8.5"/>
		<circle class="st7" cx="237.5" cy="300.6" r="8.5"/>
		<circle class="st7" cx="279" cy="302.6" r="8.5"/>
		<circle class="st7" cx="308.2" cy="299.4" r="8.5"/>
	</g>
	<path class="st8" d="M234.6,191.5c0,0,15.8,7.2,36.2,0"/>
</g>
</svg>
