<?xml version="1.0" encoding="utf-8"?>
<!-- Generator: Adobe Illustrator 23.0.3, SVG Export Plug-In . SVG Version: 6.00 Build 0)  -->
<svg version="1.1" id="Layer_1" xmlns="http://www.w3.org/2000/svg" xmlns:xlink="http://www.w3.org/1999/xlink" x="0px" y="0px"
	 viewBox="0 0 498 424" style="enable-background:new 0 0 498 424;" xml:space="preserve">
<style type="text/css">
	.st0{fill:#C1BFC0;stroke:#FFFFFF;}
	.st1{fill:none;stroke:#FFFFFF;}
	.st2{fill:#EDEDED;}
	.st3{fill:#FFFF00;stroke:#000000;}
	.st4{fill:none;stroke:#000000;stroke-width:5;}
	.st5{clip-path:url(#SVGID_2_);}
	.st6{fill:#FFFFFF;}
	.st7{fill:none;stroke:#000000;stroke-width:10;}
	.st8{fill:none;stroke:#000000;stroke-width:7;}
</style>
<g>
	<g>
		<g>
			<g>
				<path class="st0" d="M329.2,217c0,0,11,83,165.7-16c0,0,3.6-23-91.4-4.7c-95,18.3-73.4,2.4-73.4,2.4L329.2,217z"/>
				<path class="st0" d="M329.5,174.2c0,0,41.5-25.7,66.3-29.6c24.8-3.9,74.1-21.6,74.1-21.6s27.5,7.3,2.5,27.2
					c-25,19.8-57.5,41.4-139.8,37.2L329.5,174.2z"/>
			</g>
			<g>
				<path class="st1" d="M335.4,154"/>
				<path class="st1" d="M475.8,102.8"/>
				<path class="st1" d="M401.7,124.4"/>
			</g>
			<path class="st1" d="M344.7,174.9c0,0,88-6.7,134-46.7"/>
			<path class="st1" d="M363.3,156.4c0,0,2.5,15,15.5,13.5c0,0-10.5,13.5-1,16"/>
			<path class="st1" d="M381.8,147.4c0,0,4,18.3,25,16.5c0,0-12,14.5-1,17.5"/>
			<path class="st1" d="M405.3,142.4c0,0,3.8,15,23.5,13.5c0,0-5,16,4,17.5"/>
			<path class="st1" d="M430.8,135.4c0,0,3.7,11.7,23,10.5c0,0-3.5,14.5,4.5,14.5s8,0,8,0"/>
			<path class="st1" d="M449.8,128.9c0,0,3.1,7.8,19.5,7.1c0,0-2.5,6.9,4,11.9"/>
			<path class="st1" d="M342.4,217c0,0,35,31.1,152.5-15.9"/>
			<path class="st1" d="M372.4,202c0,0-1.5,25.5,18,25.5c0,0-26.1,4.4-12.7,22.4"/>
			<path class="st1" d="M343.7,204c0,0-1.5,20.9,18,20.9c0,0-26.1,3.6-12.7,18.4"/>
			<path class="st1" d="M397,197.9c-8.8,16.5,23.3,24.7,23.3,24.7s-22,15.3-8.7,22"/>
			<path class="st1" d="M424.3,195.2c0,0-4.7,20.7,18,22c0,0-12,13.3-5.3,15.3"/>
			<path class="st1" d="M447.7,191.9c0,0-3.3,20,21.3,18.7c0,0-11.3,6-6.7,9.3"/>
			<path class="st1" d="M470.3,188.9c0,0,2.7,17.6,12,16"/>
		</g>
		<g>
			<g>
				<path class="st0" d="M184.8,214.9c0,0-11,83-165.7-16c0,0-3.6-23,91.4-4.7c95,18.3,73.4,2.4,73.4,2.4L184.8,214.9z"/>
				<path class="st0" d="M184.5,172.1c0,0-41.5-25.7-66.3-29.6c-24.8-3.9-74.1-21.6-74.1-21.6s-27.5,7.3-2.5,27.2
					c25,19.8,57.5,41.4,139.8,37.2L184.5,172.1z"/>
			</g>
			<path class="st1" d="M169.3,172.8c0,0-88-6.7-134-46.7"/>
			<path class="st1" d="M150.7,154.3c0,0-2.5,15-15.5,13.5c0,0,10.5,13.5,1,16"/>
			<path class="st1" d="M132.2,145.3c0,0-4,18.3-25,16.5c0,0,12,14.5,1,17.5"/>
			<path class="st1" d="M108.7,140.3c0,0-3.8,15-23.5,13.5c0,0,5,16-4,17.5"/>
			<path class="st1" d="M83.2,133.3c0,0-3.7,11.7-23,10.5c0,0,3.5,14.5-4.5,14.5s-8,0-8,0"/>
			<path class="st1" d="M64.2,126.8c0,0-3.1,7.8-19.5,7.1c0,0,2.5,6.9-4,11.9"/>
			<path class="st1" d="M171.6,214.9c0,0-35,31.1-152.5-15.9"/>
			<path class="st1" d="M141.6,199.9c0,0,1.5,25.5-18,25.5c0,0,26.1,4.4,12.7,22.4"/>
			<path class="st1" d="M170.3,201.9c0,0,1.5,20.9-18,20.9c0,0,26.1,3.6,12.7,18.4"/>
			<path class="st1" d="M117,195.8c8.8,16.5-23.3,24.7-23.3,24.7s22,15.3,8.7,22"/>
			<path class="st1" d="M89.7,193.2c0,0,4.7,20.7-18,22c0,0,12,13.3,5.3,15.3"/>
			<path class="st1" d="M66.3,189.8c0,0,3.3,20-21.3,18.7c0,0,11.3,6,6.7,9.3"/>
			<path class="st1" d="M43.7,186.8c0,0-2.7,17.6-12,16"/>
		</g>
		<ellipse class="st2" cx="256.1" cy="374" rx="88.1" ry="46.5"/>
		<ellipse id="body" class="st3" cx="256.2" cy="225.5" rx="91.3" ry="128"/>
		<g>
			<path class="st4" d="M299.2,126.5c0,0,18-32,43-42"/>
			<circle cx="342.2" cy="82.5" r="7"/>
		</g>
		<g>
			<path class="st4" d="M209.2,126.5c0,0-18-32-43-42"/>
			<circle cx="166.2" cy="82.5" r="7"/>
		</g>
		<g>
			<g>
				<defs>
					<ellipse id="SVGID_1_" cx="256.2" cy="223.5" rx="91.3" ry="128"/>
				</defs>
				<clipPath id="SVGID_2_">
					<use xlink:href="#SVGID_1_"  style="overflow:visible;"/>
				</clipPath>
				<g class="st5">
					<path d="M160.9,195.7c0,0,73.9,70.2,188,0v15.5c-114.1,70.2-188,0-188,0V195.7z"/>
					<path d="M160.9,239.2c0,0,73.9,70.2,188,0v15.5c-114.1,70.2-188,0-188,0V239.2z"/>
				</g>
			</g>
		</g>
		<path class="st4" d="M239.2,192.1c0,0,15.8,7.2,36.2,0"/>
		<g>
			<ellipse cx="210" cy="166.9" rx="14.3" ry="18.2"/>
			<ellipse class="st6" cx="214.3" cy="160.7" rx="7.1" ry="9.1"/>
		</g>
		<g>
			<ellipse cx="307.3" cy="166.9" rx="14.3" ry="18.2"/>
			<ellipse class="st6" cx="311.6" cy="160.7" rx="7.1" ry="9.1"/>
		</g>
		<g>
			<line class="st7" x1="301.7" y1="325" x2="307.7" y2="387"/>
			<line class="st7" x1="305.7" y1="368" x2="317.7" y2="382"/>
		</g>
		<g>
			<line class="st7" x1="209.7" y1="325" x2="203.7" y2="387"/>
			<line class="st7" x1="205.7" y1="368" x2="193.7" y2="382"/>
		</g>
		<ellipse cx="317.2" cy="382" rx="17" ry="11.5"/>
		<ellipse cx="196.2" cy="382" rx="17" ry="11.5"/>
		<path class="st1" d="M335.6,161.6"/>
	</g>
	<g>
		<g>
			<path class="st8" d="M368,339c0,0-18-32-43-42"/>
			<path class="st8" d="M376,328.4c0,0-8.4-3.5-20.1-6"/>
		</g>
		<ellipse cx="365.2" cy="331.5" rx="17" ry="11.5"/>
	</g>
	<g>
		<g>
			<path class="st8" d="M143.9,339c0,0,18-32,43-42"/>
			<path class="st8" d="M135.9,328.4c0,0,8.4-3.5,20.1-6"/>
		</g>
		<ellipse cx="138.2" cy="333.5" rx="17" ry="11.5"/>
	</g>
	<g>
		<g>
			<path class="st8" d="M385,305c0,0-18-32-43-42"/>
			<path class="st8" d="M393,294.4c0,0-8.4-3.5-20.1-6"/>
		</g>
		<ellipse cx="382.2" cy="297.5" rx="17" ry="11.5"/>
	</g>
	<g>
		<g>
			<path class="st8" d="M130.9,299c0,0,18-32,43-42"/>
			<path class="st8" d="M122.9,288.4c0,0,8.4-3.5,20.1-6"/>
		</g>
		<ellipse cx="125.2" cy="293.5" rx="17" ry="11.5"/>
	</g>
</g>
</svg>
