<?xml version="1.0" encoding="utf-8"?>
<!-- Generator: Adobe Illustrator 23.0.3, SVG Export Plug-In . SVG Version: 6.00 Build 0)  -->
<svg version="1.1" id="Layer_1" xmlns="http://www.w3.org/2000/svg" xmlns:xlink="http://www.w3.org/1999/xlink" x="0px" y="0px"
	 viewBox="0 0 498 424" style="enable-background:new 0 0 498 424;" xml:space="preserve">
<style type="text/css">
	.st0{fill:none;stroke:#000000;stroke-width:5;}
	.st1{fill:#C1BFC0;stroke:#FFFFFF;}
	.st2{fill:none;stroke:#FFFFFF;}
	.st3{fill:#EDEDED;}
	.st4{fill:#FFFF00;stroke:#000000;}
	.st5{fill:#FFFFFF;}
	.st6{fill:none;stroke:#000000;stroke-width:10;}
	.st7{stroke:#000000;}
	.st8{fill:none;stroke:#000000;stroke-width:7;}
</style>
<g>
	<g>
		<g>
			<path class="st0" d="M465.3,257.7"/>
			<path class="st1" d="M332.2,168.7c0,0,34-30,65-4s4,101-56,103L332.2,168.7z"/>
			<path class="st2" d="M347.3,226.6c24.6,1.2,59.4-25.4,56-55.5"/>
			<path class="st2" d="M370.7,260c-0.3,0-0.6,0-0.8,0c-20.9-0.3-15.4-34.3-15.4-34.3l-5.7-5"/>
			<path class="st2" d="M387,253.6"/>
			<path class="st2" d="M370.7,221.3c0,0-4.4,25.9,9.8,31.3"/>
			<path class="st2" d="M401,243.9"/>
			<path class="st2" d="M384.7,211.6c0,0-3.9,22.6,7.3,30"/>
			<path class="st2" d="M412.3,231.3"/>
			<path class="st2" d="M396.1,199c0,0-3.4,19.9,5.4,28.5"/>
			<path class="st2" d="M420,211.6"/>
			<path class="st2" d="M375.1,154.6"/>
			<path class="st2" d="M408.2,207.7c-8.9-8.3-4.9-26.8-4.9-26.8"/>
			<path class="st2" d="M396.3,199.4c0,0-54.6-7.4-34.4-45.5"/>
			<path class="st2" d="M401.8,186.4c0,0-30.2-6.4-28.5-31.8"/>
			<path class="st2" d="M384.3,211.9c0,0-54.6-8.7-34.4-54"/>
			<path class="st2" d="M371.1,220.4c0,0-12.9-3.4-24.4-15.4"/>
			<path class="st2" d="M392.2,217.2"/>
		</g>
		<g>
			<path class="st1" d="M182,168.7c0,0-34-30-65-4s-4,101,56,103L182,168.7z"/>
			<path class="st2" d="M166.9,226.6c-24.6,1.2-59.4-25.4-56-55.5"/>
			<path class="st2" d="M143.6,260c0.3,0,0.6,0,0.8,0c20.9-0.3,15.4-34.3,15.4-34.3l5.7-5"/>
			<path class="st2" d="M127.2,253.6"/>
			<path class="st2" d="M143.5,221.3c0,0,4.4,25.9-9.8,31.3"/>
			<path class="st2" d="M113.2,243.9"/>
			<path class="st2" d="M129.5,211.6c0,0,3.9,22.6-7.3,30"/>
			<path class="st2" d="M101.9,231.3"/>
			<path class="st2" d="M118.1,198.9c0,0,3.4,19.9-5.4,28.5"/>
			<path class="st2" d="M94.2,211.6"/>
			<path class="st2" d="M139.1,154.6"/>
			<path class="st2" d="M106,207.7c8.9-8.3,4.9-26.8,4.9-26.8"/>
			<path class="st2" d="M117.9,199.4c0,0,54.6-7.4,34.4-45.5"/>
			<path class="st2" d="M112.4,186.4c0,0,30.2-6.4,28.5-31.8"/>
			<path class="st2" d="M129.9,211.9c0,0,54.6-8.7,34.4-54"/>
			<path class="st2" d="M143.1,220.4c0,0,12.9-3.4,24.4-15.4"/>
			<path class="st2" d="M122,217.2"/>
		</g>
		<ellipse class="st3" cx="257.1" cy="372" rx="88.1" ry="46.5"/>
		<ellipse id="body" class="st4" cx="257.2" cy="223.5" rx="91.3" ry="128"/>
		<g>
			<path class="st0" d="M300.2,124.5c0,0,18-32,43-42"/>
			<circle cx="343.2" cy="80.5" r="7"/>
		</g>
		<g>
			<path class="st0" d="M210.2,124.5c0,0-18-32-43-42"/>
			<circle cx="167.2" cy="80.5" r="7"/>
		</g>
		<g>
			<ellipse cx="211" cy="164.9" rx="14.3" ry="18.2"/>
			<ellipse class="st5" cx="215.3" cy="158.7" rx="7.1" ry="9.1"/>
		</g>
		<g>
			<ellipse cx="308.3" cy="164.9" rx="14.3" ry="18.2"/>
			<ellipse class="st5" cx="312.6" cy="158.7" rx="7.1" ry="9.1"/>
		</g>
		<g>
			<line class="st6" x1="302.7" y1="323" x2="308.7" y2="385"/>
			<line class="st6" x1="306.7" y1="366" x2="318.7" y2="380"/>
		</g>
		<g>
			<line class="st6" x1="210.7" y1="323" x2="204.7" y2="385"/>
			<line class="st6" x1="206.7" y1="366" x2="194.7" y2="380"/>
		</g>
		<ellipse cx="318.2" cy="380" rx="17" ry="11.5"/>
		<ellipse cx="197.2" cy="380" rx="17" ry="11.5"/>
		<path class="st2" d="M336.6,159.6"/>
		<g>
			<circle class="st7" cx="199.3" cy="260.5" r="8.5"/>
			<circle class="st7" cx="223.3" cy="282.5" r="8.5"/>
			<circle class="st7" cx="199.3" cy="300.5" r="8.5"/>
			<circle class="st7" cx="312.3" cy="260.5" r="8.5"/>
			<circle class="st7" cx="288.3" cy="282.5" r="8.5"/>
			<circle class="st7" cx="241.1" cy="253.8" r="8.5"/>
			<circle class="st7" cx="281.1" cy="251.8" r="8.5"/>
			<circle class="st7" cx="259.1" cy="281.8" r="8.5"/>
			<circle class="st7" cx="241.6" cy="301.8" r="8.5"/>
			<circle class="st7" cx="283.1" cy="303.8" r="8.5"/>
			<circle class="st7" cx="312.3" cy="300.5" r="8.5"/>
		</g>
	</g>
	<g>
		<g>
			<path class="st8" d="M366.8,350.8c0,0-18-32-43-42"/>
			<path class="st8" d="M374.8,340.2c0,0-8.4-3.5-20.1-6"/>
		</g>
		<ellipse cx="364.1" cy="343.3" rx="17" ry="11.5"/>
	</g>
	<g>
		<g>
			<path class="st8" d="M148.8,350.8c0,0,18-32,43-42"/>
			<path class="st8" d="M140.7,340.2c0,0,8.4-3.5,20.1-6"/>
		</g>
		<ellipse cx="143.1" cy="345.3" rx="17" ry="11.5"/>
	</g>
	<g>
		<g>
			<path class="st8" d="M381.8,310.8c0,0-18-32-43-42"/>
			<path class="st8" d="M389.8,300.2c0,0-8.4-3.5-20.1-6"/>
		</g>
		<ellipse cx="379.1" cy="303.3" rx="17" ry="11.5"/>
	</g>
	<g>
		<g>
			<path class="st8" d="M138.8,310.8c0,0,18-32,43-42"/>
			<path class="st8" d="M130.7,300.2c0,0,8.4-3.5,20.1-6"/>
		</g>
		<ellipse cx="133.1" cy="305.3" rx="17" ry="11.5"/>
	</g>
	<path class="st0" d="M240.5,192.2c0,0,15.8,7.2,36.2,0"/>
</g>
</svg>
