<?xml version="1.0" encoding="utf-8"?>
<!-- Generator: Adobe Illustrator 23.0.3, SVG Export Plug-In . SVG Version: 6.00 Build 0)  -->
<svg version="1.1" id="Layer_1" xmlns="http://www.w3.org/2000/svg" xmlns:xlink="http://www.w3.org/1999/xlink" x="0px" y="0px"
	 viewBox="0 0 498 424" style="enable-background:new 0 0 498 424;" xml:space="preserve">
<style type="text/css">
	.st0{fill:none;stroke:#000000;stroke-width:5;}
	.st1{fill:#C1BFC0;stroke:#FFFFFF;}
	.st2{fill:none;stroke:#FFFFFF;}
	.st3{fill:#EDEDED;}
	.st4{fill:#FFFF00;stroke:#000000;}
	.st5{fill:#FFFFFF;}
	.st6{fill:none;stroke:#000000;stroke-width:10;}
	.st7{stroke:#000000;}
</style>
<g id="dots_1_">
	<g>
		<path class="st0" d="M470.6,258.6"/>
		<path class="st1" d="M337.5,169.7c0,0,34-30,65-4s4,101-56,103L337.5,169.7z"/>
		<path class="st2" d="M352.6,227.6c24.6,1.2,59.4-25.4,56-55.5"/>
		<path class="st2" d="M375.9,260.9c-0.3,0-0.6,0-0.8,0c-20.9-0.3-15.4-34.3-15.4-34.3l-5.7-5"/>
		<path class="st2" d="M392.3,254.6"/>
		<path class="st2" d="M376,222.2c0,0-4.4,25.9,9.8,31.3"/>
		<path class="st2" d="M406.3,244.9"/>
		<path class="st2" d="M390,212.6c0,0-3.9,22.6,7.3,30"/>
		<path class="st2" d="M417.6,232.2"/>
		<path class="st2" d="M401.3,199.9c0,0-3.4,19.9,5.4,28.5"/>
		<path class="st2" d="M425.3,212.6"/>
		<path class="st2" d="M380.4,155.6"/>
		<path class="st2" d="M413.5,208.7c-8.9-8.3-4.9-26.8-4.9-26.8"/>
		<path class="st2" d="M401.6,200.3c0,0-54.6-7.4-34.4-45.5"/>
		<path class="st2" d="M407.1,187.3c0,0-30.2-6.4-28.5-31.8"/>
		<path class="st2" d="M389.6,212.8c0,0-54.6-8.7-34.4-54"/>
		<path class="st2" d="M376.4,221.3c0,0-12.9-3.4-24.4-15.4"/>
		<path class="st2" d="M397.5,218.2"/>
	</g>
	<g>
		<path class="st1" d="M187.3,169.7c0,0-34-30-65-4s-4,101,56,103L187.3,169.7z"/>
		<path class="st2" d="M172.1,227.6c-24.6,1.2-59.4-25.4-56-55.5"/>
		<path class="st2" d="M148.8,260.9c0.3,0,0.6,0,0.8,0c20.9-0.3,15.4-34.3,15.4-34.3l5.7-5"/>
		<path class="st2" d="M132.5,254.6"/>
		<path class="st2" d="M148.7,222.2c0,0,4.4,25.9-9.8,31.3"/>
		<path class="st2" d="M118.5,244.9"/>
		<path class="st2" d="M134.7,212.6c0,0,3.9,22.6-7.3,30"/>
		<path class="st2" d="M107.1,232.2"/>
		<path class="st2" d="M123.4,199.9c0,0,3.4,19.9-5.4,28.5"/>
		<path class="st2" d="M99.5,212.6"/>
		<path class="st2" d="M144.4,155.6"/>
		<path class="st2" d="M111.3,208.7c8.9-8.3,4.9-26.8,4.9-26.8"/>
		<path class="st2" d="M123.1,200.3c0,0,54.6-7.4,34.4-45.5"/>
		<path class="st2" d="M117.6,187.3c0,0,30.2-6.4,28.5-31.8"/>
		<path class="st2" d="M135.1,212.8c0,0,54.6-8.7,34.4-54"/>
		<path class="st2" d="M148.4,221.3c0,0,12.9-3.4,24.4-15.4"/>
		<path class="st2" d="M127.3,218.2"/>
	</g>
	<ellipse class="st3" cx="262.4" cy="373" rx="88.1" ry="46.5"/>
	<ellipse id="body" class="st4" cx="262.5" cy="224.4" rx="91.3" ry="128"/>
	<g>
		<ellipse cx="216.3" cy="165.9" rx="14.3" ry="18.2"/>
		<ellipse class="st5" cx="220.6" cy="159.6" rx="7.1" ry="9.1"/>
	</g>
	<g>
		<ellipse cx="313.6" cy="165.9" rx="14.3" ry="18.2"/>
		<ellipse class="st5" cx="317.8" cy="159.6" rx="7.1" ry="9.1"/>
	</g>
	<g>
		<line class="st6" x1="308" y1="323.9" x2="314" y2="385.9"/>
		<line class="st6" x1="312" y1="366.9" x2="324" y2="380.9"/>
	</g>
	<g>
		<line class="st6" x1="216" y1="323.9" x2="210" y2="385.9"/>
		<line class="st6" x1="212" y1="366.9" x2="200" y2="380.9"/>
	</g>
	<ellipse cx="323.5" cy="380.9" rx="17" ry="11.5"/>
	<ellipse cx="202.5" cy="380.9" rx="17" ry="11.5"/>
	<path class="st2" d="M341.9,160.6"/>
	<g>
		<circle class="st7" cx="204.5" cy="261.5" r="8.5"/>
		<circle class="st7" cx="228.5" cy="283.5" r="8.5"/>
		<circle class="st7" cx="204.5" cy="301.5" r="8.5"/>
		<circle class="st7" cx="317.5" cy="261.5" r="8.5"/>
		<circle class="st7" cx="293.5" cy="283.5" r="8.5"/>
		<circle class="st7" cx="246.3" cy="254.7" r="8.5"/>
		<circle class="st7" cx="286.3" cy="252.7" r="8.5"/>
		<circle class="st7" cx="264.3" cy="282.7" r="8.5"/>
		<circle class="st7" cx="246.8" cy="302.7" r="8.5"/>
		<circle class="st7" cx="288.3" cy="304.7" r="8.5"/>
		<circle class="st7" cx="317.5" cy="301.5" r="8.5"/>
	</g>
	<path class="st0" d="M245.4,192.3c0,0,15.8,7.2,36.2,0"/>
</g>
</svg>
