<?xml version="1.0" encoding="utf-8"?>
<!-- Generator: Adobe Illustrator 23.0.3, SVG Export Plug-In . SVG Version: 6.00 Build 0)  -->
<svg version="1.1" id="Layer_1" xmlns="http://www.w3.org/2000/svg" xmlns:xlink="http://www.w3.org/1999/xlink" x="0px" y="0px"
	 viewBox="0 0 498 424" style="enable-background:new 0 0 498 424;" xml:space="preserve">
<style type="text/css">
	.st0{fill:none;stroke:#000000;stroke-width:5;}
	.st1{fill:#C1BFC0;stroke:#FFFFFF;}
	.st2{fill:none;stroke:#FFFFFF;}
	.st3{fill:#EDEDED;}
	.st4{fill:#FFFF00;stroke:#000000;}
	.st5{clip-path:url(#SVGID_2_);}
	.st6{fill:#FFFFFF;}
	.st7{fill:none;stroke:#000000;stroke-width:10;}
</style>
<g>
	<g>
		<path class="st0" d="M464.6,262.9"/>
		<path class="st1" d="M331.5,173.9c0,0,34-30,65-4c31,26,4,101-56,103L331.5,173.9z"/>
		<path class="st2" d="M346.7,231.9c24.6,1.2,59.4-25.4,56-55.5"/>
		<path class="st2" d="M370,265.2c-0.3,0-0.6,0-0.8,0c-20.9-0.3-15.4-34.3-15.4-34.3l-5.7-5"/>
		<path class="st2" d="M386.3,258.9"/>
		<path class="st2" d="M370.1,226.5c0,0-4.4,25.9,9.8,31.3"/>
		<path class="st2" d="M400.3,249.2"/>
		<path class="st2" d="M384.1,216.9c0,0-3.9,22.6,7.3,30"/>
		<path class="st2" d="M411.7,236.5"/>
		<path class="st2" d="M395.4,204.2c0,0-3.4,19.9,5.4,28.5"/>
		<path class="st2" d="M419.3,216.9"/>
		<path class="st2" d="M374.4,159.9"/>
		<path class="st2" d="M407.5,213c-8.9-8.3-4.9-26.8-4.9-26.8"/>
		<path class="st2" d="M395.7,204.6c0,0-54.6-7.4-34.5-45.5"/>
		<path class="st2" d="M401.2,191.6c0,0-30.2-6.4-28.5-31.8"/>
		<path class="st2" d="M383.7,217.1c0,0-54.6-8.7-34.5-54"/>
		<path class="st2" d="M370.4,225.6c0,0-12.9-3.4-24.4-15.4"/>
		<path class="st2" d="M391.5,222.5"/>
	</g>
	<g>
		<path class="st1" d="M181.3,173.9c0,0-34-30-65-4s-4,101,56,103L181.3,173.9z"/>
		<path class="st2" d="M166.2,231.9c-24.6,1.2-59.4-25.4-56-55.5"/>
		<path class="st2" d="M142.9,265.2c0.3,0,0.6,0,0.8,0c20.9-0.3,15.4-34.3,15.4-34.3l5.7-5"/>
		<path class="st2" d="M126.5,258.9"/>
		<path class="st2" d="M142.8,226.5c0,0,4.4,25.9-9.8,31.3"/>
		<path class="st2" d="M112.5,249.2"/>
		<path class="st2" d="M128.8,216.9c0,0,3.9,22.6-7.3,30"/>
		<path class="st2" d="M101.2,236.5"/>
		<path class="st2" d="M117.5,204.2c0,0,3.4,19.9-5.4,28.5"/>
		<path class="st2" d="M93.5,216.9"/>
		<path class="st2" d="M138.4,159.9"/>
		<path class="st2" d="M105.3,213c8.9-8.3,4.9-26.8,4.9-26.8"/>
		<path class="st2" d="M117.2,204.6c0,0,54.6-7.4,34.4-45.5"/>
		<path class="st2" d="M111.7,191.6c0,0,30.2-6.4,28.5-31.8"/>
		<path class="st2" d="M129.2,217.1c0,0,54.6-8.7,34.4-54"/>
		<path class="st2" d="M142.4,225.6c0,0,12.9-3.4,24.4-15.4"/>
		<path class="st2" d="M121.3,222.5"/>
	</g>
	<ellipse class="st3" cx="256.5" cy="377.2" rx="88.1" ry="46.5"/>
	<ellipse id="body" class="st4" cx="256.5" cy="228.7" rx="91.3" ry="128"/>
	<g>
		<g>
			<defs>
				<ellipse id="SVGID_1_" cx="256.5" cy="226.7" rx="91.3" ry="128"/>
			</defs>
			<clipPath id="SVGID_2_">
				<use xlink:href="#SVGID_1_"  style="overflow:visible;"/>
			</clipPath>
			<g class="st5">
				<path d="M161.2,198.9c0,0,73.9,70.2,188,0v15.5c-114.1,70.2-188,0-188,0V198.9z"/>
				<path d="M161.2,242.4c0,0,73.9,70.2,188,0v15.5c-114.1,70.2-188,0-188,0V242.4z"/>
			</g>
		</g>
	</g>
	<path class="st0" d="M238.9,197c0,0,15.8,7.2,36.2,0"/>
	<g>
		<ellipse cx="210.3" cy="170.2" rx="14.3" ry="18.2"/>
		<ellipse class="st6" cx="214.6" cy="163.9" rx="7.1" ry="9.1"/>
	</g>
	<g>
		<ellipse cx="307.6" cy="170.2" rx="14.3" ry="18.2"/>
		<ellipse class="st6" cx="311.9" cy="163.9" rx="7.1" ry="9.1"/>
	</g>
	<g>
		<line class="st7" x1="302" y1="328.2" x2="308" y2="390.2"/>
		<line class="st7" x1="306" y1="371.2" x2="318" y2="385.2"/>
	</g>
	<g>
		<line class="st7" x1="210" y1="328.2" x2="204" y2="390.2"/>
		<line class="st7" x1="206" y1="371.2" x2="194" y2="385.2"/>
	</g>
	<ellipse cx="317.5" cy="385.2" rx="17" ry="11.5"/>
	<ellipse cx="196.5" cy="385.2" rx="17" ry="11.5"/>
	<path class="st2" d="M336,164.9"/>
</g>
</svg>
