<?xml version="1.0" encoding="utf-8"?>
<!-- Generator: Adobe Illustrator 23.0.3, SVG Export Plug-In . SVG Version: 6.00 Build 0)  -->
<svg version="1.1" id="Layer_1" xmlns="http://www.w3.org/2000/svg" xmlns:xlink="http://www.w3.org/1999/xlink" x="0px" y="0px"
	 viewBox="0 0 495 424" style="enable-background:new 0 0 495 424;" xml:space="preserve">
<style type="text/css">
	.st0{fill:none;stroke:#000000;stroke-width:5;}
	.st1{fill:#C1BFC0;stroke:#FFFFFF;}
	.st2{fill:none;stroke:#FFFFFF;}
	.st3{fill:#EDEDED;}
	.st4{fill:#FFFF00;stroke:#000000;}
	.st5{clip-path:url(#SVGID_2_);}
	.st6{fill:#FFFFFF;}
	.st7{fill:none;stroke:#000000;stroke-width:10;}
	.st8{fill:none;stroke:#000000;stroke-width:7;}
</style>
<g>
	<g>
		<path class="st0" d="M467.5,258.2"/>
		<path class="st1" d="M334.4,169.2c0,0,34-30,65-4s4,101-56,103L334.4,169.2z"/>
		<path class="st2" d="M349.6,227.2c24.6,1.2,59.4-25.4,56-55.5"/>
		<path class="st2" d="M372.9,260.5c-0.3,0-0.6,0-0.8,0c-20.9-0.3-15.4-34.3-15.4-34.3l-5.7-5"/>
		<path class="st2" d="M389.2,254.2"/>
		<path class="st2" d="M373,221.8c0,0-4.4,25.9,9.8,31.3"/>
		<path class="st2" d="M403.2,244.5"/>
		<path class="st2" d="M387,212.2c0,0-3.9,22.6,7.3,30"/>
		<path class="st2" d="M414.6,231.8"/>
		<path class="st2" d="M398.3,199.5c0,0-3.4,19.9,5.4,28.5"/>
		<path class="st2" d="M422.2,212.2"/>
		<path class="st2" d="M377.3,155.2"/>
		<path class="st2" d="M410.5,208.3c-8.9-8.3-4.9-26.8-4.9-26.8"/>
		<path class="st2" d="M398.6,199.9c0,0-54.6-7.4-34.4-45.5"/>
		<path class="st2" d="M404.1,186.9c0,0-30.2-6.4-28.5-31.8"/>
		<path class="st2" d="M386.6,212.4c0,0-54.6-8.7-34.4-54"/>
		<path class="st2" d="M373.3,220.9c0,0-12.9-3.4-24.4-15.4"/>
		<path class="st2" d="M394.5,217.8"/>
	</g>
	<g>
		<path class="st1" d="M184.2,169.2c0,0-34-30-65-4s-4,101,56,103L184.2,169.2z"/>
		<path class="st2" d="M169.1,227.1c-24.6,1.2-59.4-25.4-56-55.5"/>
		<path class="st2" d="M145.8,260.5c0.3,0,0.6,0,0.8,0c20.9-0.3,15.4-34.3,15.4-34.3l5.7-5"/>
		<path class="st2" d="M129.4,254.2"/>
		<path class="st2" d="M145.7,221.8c0,0,4.4,25.9-9.8,31.3"/>
		<path class="st2" d="M115.4,244.5"/>
		<path class="st2" d="M131.7,212.2c0,0,3.9,22.6-7.3,30"/>
		<path class="st2" d="M104.1,231.8"/>
		<path class="st2" d="M120.4,199.5c0,0,3.4,19.9-5.4,28.5"/>
		<path class="st2" d="M96.4,212.2"/>
		<path class="st2" d="M141.4,155.2"/>
		<path class="st2" d="M108.2,208.3c8.9-8.3,4.9-26.8,4.9-26.8"/>
		<path class="st2" d="M120.1,199.9c0,0,54.6-7.4,34.4-45.5"/>
		<path class="st2" d="M114.6,186.9c0,0,30.2-6.4,28.5-31.8"/>
		<path class="st2" d="M132.1,212.4c0,0,54.6-8.7,34.4-54"/>
		<path class="st2" d="M145.4,220.9c0,0,12.9-3.4,24.4-15.4"/>
		<path class="st2" d="M124.2,217.8"/>
	</g>
	<ellipse class="st3" cx="259.4" cy="372.5" rx="88.1" ry="46.5"/>
	<ellipse id="body" class="st4" cx="259.4" cy="224" rx="91.3" ry="128"/>
	<g>
		<g>
			<defs>
				<ellipse id="SVGID_1_" cx="259.4" cy="222" rx="91.3" ry="128"/>
			</defs>
			<clipPath id="SVGID_2_">
				<use xlink:href="#SVGID_1_"  style="overflow:visible;"/>
			</clipPath>
			<g class="st5">
				<path d="M164.1,194.2c0,0,73.9,70.2,188,0v15.5c-114.1,70.2-188,0-188,0L164.1,194.2L164.1,194.2z"/>
				<path d="M164.1,237.7c0,0,73.9,70.2,188,0v15.5c-114.1,70.2-188,0-188,0L164.1,237.7L164.1,237.7z"/>
			</g>
		</g>
	</g>
	<path class="st0" d="M241.9,192.2c0,0,15.8,7.2,36.2,0"/>
	<g>
		<ellipse cx="213.2" cy="165.4" rx="14.3" ry="18.2"/>
		<ellipse class="st6" cx="217.5" cy="159.2" rx="7.1" ry="9.1"/>
	</g>
	<g>
		<ellipse cx="310.5" cy="165.4" rx="14.3" ry="18.2"/>
		<ellipse class="st6" cx="314.8" cy="159.2" rx="7.1" ry="9.1"/>
	</g>
	<g>
		<line class="st7" x1="304.9" y1="323.5" x2="310.9" y2="385.5"/>
		<line class="st7" x1="308.9" y1="366.5" x2="320.9" y2="380.5"/>
	</g>
	<g>
		<line class="st7" x1="212.9" y1="323.5" x2="206.9" y2="385.5"/>
		<line class="st7" x1="208.9" y1="366.5" x2="196.9" y2="380.5"/>
	</g>
	<ellipse cx="320.4" cy="380.5" rx="17" ry="11.5"/>
	<ellipse cx="199.4" cy="380.5" rx="17" ry="11.5"/>
	<path class="st2" d="M338.9,160.2"/>
	<g>
		<g>
			<path class="st8" d="M376,342.5c0,0-18-32-43-42"/>
			<path class="st8" d="M384,331.9c0,0-8.4-3.5-20.1-6"/>
		</g>
		<ellipse cx="373.3" cy="334.9" rx="17" ry="11.5"/>
	</g>
	<g>
		<g>
			<path class="st8" d="M147,342.5c0,0,18-32,43-42"/>
			<path class="st8" d="M138.9,331.9c0,0,8.4-3.5,20.1-6"/>
		</g>
		<ellipse cx="141.3" cy="336.9" rx="17" ry="11.5"/>
	</g>
	<g>
		<g>
			<path class="st8" d="M385,302.5c0,0-18-32-43-42"/>
			<path class="st8" d="M393,291.9c0,0-8.4-3.5-20.1-6"/>
		</g>
		<ellipse cx="382.3" cy="294.9" rx="17" ry="11.5"/>
	</g>
	<g>
		<g>
			<path class="st8" d="M142,302.5c0,0,18-32,43-42"/>
			<path class="st8" d="M133.9,291.9c0,0,8.4-3.5,20.1-6"/>
		</g>
		<ellipse cx="136.3" cy="296.9" rx="17" ry="11.5"/>
	</g>
</g>
</svg>
