<?xml version="1.0" encoding="utf-8"?>
<!-- Generator: Adobe Illustrator 23.0.3, SVG Export Plug-In . SVG Version: 6.00 Build 0)  -->
<svg version="1.1" id="Layer_1" xmlns="http://www.w3.org/2000/svg" xmlns:xlink="http://www.w3.org/1999/xlink" x="0px" y="0px"
	 viewBox="0 0 498 424" style="enable-background:new 0 0 498 424;" xml:space="preserve">
<style type="text/css">
	.st0{fill:none;stroke:#000000;stroke-width:5;}
	.st1{fill:#C1BFC0;stroke:#FFFFFF;}
	.st2{fill:none;stroke:#FFFFFF;}
	.st3{fill:#EDEDED;}
	.st4{fill:#FFFF00;stroke:#000000;}
	.st5{clip-path:url(#SVGID_2_);}
	.st6{fill:#FFFFFF;}
	.st7{fill:none;stroke:#000000;stroke-width:10;}
</style>
<g>
	<g>
		<path class="st0" d="M467.4,261.7"/>
		<path class="st1" d="M334.3,172.7c0,0,34-30,65-4c31,26,4,101-56,103L334.3,172.7z"/>
		<path class="st2" d="M349.5,230.6c24.6,1.2,59.4-25.4,56-55.5"/>
		<path class="st2" d="M372.8,264c-0.3,0-0.6,0-0.8,0c-20.9-0.3-15.4-34.3-15.4-34.3l-5.7-5"/>
		<path class="st2" d="M389.1,257.6"/>
		<path class="st2" d="M372.9,225.3c0,0-4.4,25.9,9.8,31.3"/>
		<path class="st2" d="M403.1,247.9"/>
		<path class="st2" d="M386.9,215.6c0,0-3.9,22.6,7.3,30"/>
		<path class="st2" d="M414.5,235.3"/>
		<path class="st2" d="M398.2,203c0,0-3.4,19.9,5.4,28.5"/>
		<path class="st2" d="M422.1,215.6"/>
		<path class="st2" d="M377.2,158.6"/>
		<path class="st2" d="M410.4,211.7c-8.9-8.3-4.9-26.8-4.9-26.8"/>
		<path class="st2" d="M398.5,203.4c0,0-54.6-7.4-34.5-45.5"/>
		<path class="st2" d="M404,190.4c0,0-30.2-6.4-28.5-31.8"/>
		<path class="st2" d="M386.5,215.9c0,0-54.6-8.7-34.5-54"/>
		<path class="st2" d="M373.2,224.4c0,0-12.9-3.4-24.4-15.4"/>
		<path class="st2" d="M394.4,221.2"/>
	</g>
	<g>
		<path class="st1" d="M184.1,172.7c0,0-34-30-65-4s-4,101,56,103L184.1,172.7z"/>
		<path class="st2" d="M169,230.6c-24.6,1.2-59.4-25.4-56-55.5"/>
		<path class="st2" d="M145.7,264c0.3,0,0.6,0,0.8,0c20.9-0.3,15.4-34.3,15.4-34.3l5.7-5"/>
		<path class="st2" d="M129.3,257.6"/>
		<path class="st2" d="M145.6,225.3c0,0,4.4,25.9-9.8,31.3"/>
		<path class="st2" d="M115.3,247.9"/>
		<path class="st2" d="M131.6,215.6c0,0,3.9,22.6-7.3,30"/>
		<path class="st2" d="M104,235.3"/>
		<path class="st2" d="M120.3,202.9c0,0,3.4,19.9-5.4,28.5"/>
		<path class="st2" d="M96.3,215.6"/>
		<path class="st2" d="M141.3,158.6"/>
		<path class="st2" d="M108.1,211.7c8.9-8.3,4.9-26.8,4.9-26.8"/>
		<path class="st2" d="M120,203.4c0,0,54.6-7.4,34.4-45.5"/>
		<path class="st2" d="M114.5,190.4c0,0,30.2-6.4,28.5-31.8"/>
		<path class="st2" d="M132,215.9c0,0,54.6-8.7,34.4-54"/>
		<path class="st2" d="M145.3,224.4c0,0,12.9-3.4,24.4-15.4"/>
		<path class="st2" d="M124.1,221.2"/>
	</g>
	<ellipse class="st3" cx="259.3" cy="376" rx="88.1" ry="46.5"/>
	<ellipse id="body" class="st4" cx="259.3" cy="227.5" rx="91.3" ry="128"/>
	<g>
		<path class="st0" d="M302.3,128.5c0,0,18-32,43-42"/>
		<circle cx="345.3" cy="84.5" r="7"/>
	</g>
	<g>
		<path class="st0" d="M212.3,128.5c0,0-18-32-43-42"/>
		<circle cx="169.3" cy="84.5" r="7"/>
	</g>
	<g>
		<g>
			<defs>
				<ellipse id="SVGID_1_" cx="259.3" cy="225.5" rx="91.3" ry="128"/>
			</defs>
			<clipPath id="SVGID_2_">
				<use xlink:href="#SVGID_1_"  style="overflow:visible;"/>
			</clipPath>
			<g class="st5">
				<path d="M164,197.7c0,0,73.9,70.2,188,0v15.5c-114.1,70.2-188,0-188,0V197.7z"/>
				<path d="M164,241.2c0,0,73.9,70.2,188,0v15.5c-114.1,70.2-188,0-188,0V241.2z"/>
			</g>
		</g>
	</g>
	<path class="st0" d="M241.7,195.7c0,0,15.8,7.2,36.2,0"/>
	<g>
		<ellipse cx="213.1" cy="168.9" rx="14.3" ry="18.2"/>
		<ellipse class="st6" cx="217.4" cy="162.7" rx="7.1" ry="9.1"/>
	</g>
	<g>
		<ellipse cx="310.4" cy="168.9" rx="14.3" ry="18.2"/>
		<ellipse class="st6" cx="314.7" cy="162.7" rx="7.1" ry="9.1"/>
	</g>
	<g>
		<line class="st7" x1="304.8" y1="327" x2="310.8" y2="389"/>
		<line class="st7" x1="308.8" y1="370" x2="320.8" y2="384"/>
	</g>
	<g>
		<line class="st7" x1="212.8" y1="327" x2="206.8" y2="389"/>
		<line class="st7" x1="208.8" y1="370" x2="196.8" y2="384"/>
	</g>
	<ellipse cx="320.3" cy="384" rx="17" ry="11.5"/>
	<ellipse cx="199.3" cy="384" rx="17" ry="11.5"/>
	<path class="st2" d="M338.8,163.6"/>
</g>
</svg>
