<?xml version="1.0" encoding="utf-8"?>
<!-- Generator: Adobe Illustrator 23.0.3, SVG Export Plug-In . SVG Version: 6.00 Build 0)  -->
<svg version="1.1" id="Layer_1" xmlns="http://www.w3.org/2000/svg" xmlns:xlink="http://www.w3.org/1999/xlink" x="0px" y="0px"
	 viewBox="0 0 498 424" style="enable-background:new 0 0 498 424;" xml:space="preserve">
<style type="text/css">
	.st0{fill:none;stroke:#000000;stroke-width:5;}
	.st1{fill:#C1BFC0;stroke:#FFFFFF;}
	.st2{fill:none;stroke:#FFFFFF;}
	.st3{fill:#EDEDED;}
	.st4{fill:#FFFF00;stroke:#000000;}
	.st5{fill:#FFFFFF;}
	.st6{fill:none;stroke:#000000;stroke-width:10;}
	.st7{stroke:#000000;}
	.st8{fill:none;stroke:#000000;stroke-width:7;}
</style>
<g>
	<g>
		<g>
			<path class="st0" d="M464.3,259.8"/>
			<path class="st1" d="M331.2,170.8c0,0,34-30,65-4s4,101-56,103L331.2,170.8z"/>
			<path class="st2" d="M346.3,228.7c24.6,1.2,59.4-25.4,56-55.5"/>
			<path class="st2" d="M369.6,262.1c-0.3,0-0.6,0-0.8,0c-20.9-0.3-15.4-34.3-15.4-34.3l-5.7-5"/>
			<path class="st2" d="M386,255.7"/>
			<path class="st2" d="M369.7,223.4c0,0-4.4,25.9,9.8,31.3"/>
			<path class="st2" d="M400,246.1"/>
			<path class="st2" d="M383.7,213.7c0,0-3.9,22.6,7.3,30"/>
			<path class="st2" d="M411.3,233.4"/>
			<path class="st2" d="M395,201.1c0,0-3.4,19.9,5.4,28.5"/>
			<path class="st2" d="M419,213.7"/>
			<path class="st2" d="M374,156.7"/>
			<path class="st2" d="M407.2,209.8c-8.9-8.3-4.9-26.8-4.9-26.8"/>
			<path class="st2" d="M395.3,201.5c0,0-54.6-7.4-34.4-45.5"/>
			<path class="st2" d="M400.8,188.5c0,0-30.2-6.4-28.5-31.8"/>
			<path class="st2" d="M383.3,214c0,0-54.6-8.7-34.4-54"/>
			<path class="st2" d="M370,222.5c0,0-12.9-3.4-24.4-15.4"/>
			<path class="st2" d="M391.2,219.3"/>
		</g>
		<g>
			<path class="st1" d="M181,170.8c0,0-34-30-65-4s-4,101,56,103L181,170.8z"/>
			<path class="st2" d="M165.8,228.7c-24.6,1.2-59.4-25.4-56-55.5"/>
			<path class="st2" d="M142.5,262.1c0.3,0,0.6,0,0.8,0c20.9-0.3,15.4-34.3,15.4-34.3l5.7-5"/>
			<path class="st2" d="M126.2,255.7"/>
			<path class="st2" d="M142.4,223.4c0,0,4.4,25.9-9.8,31.3"/>
			<path class="st2" d="M112.2,246.1"/>
			<path class="st2" d="M128.4,213.7c0,0,3.9,22.6-7.3,30"/>
			<path class="st2" d="M100.8,233.4"/>
			<path class="st2" d="M117.1,201.1c0,0,3.4,19.9-5.4,28.5"/>
			<path class="st2" d="M93.2,213.7"/>
			<path class="st2" d="M138.1,156.7"/>
			<path class="st2" d="M104.9,209.8c8.9-8.3,4.9-26.8,4.9-26.8"/>
			<path class="st2" d="M116.8,201.5c0,0,54.6-7.4,34.4-45.5"/>
			<path class="st2" d="M111.3,188.5c0,0,30.2-6.4,28.5-31.8"/>
			<path class="st2" d="M128.8,214c0,0,54.6-8.7,34.4-54"/>
			<path class="st2" d="M142.1,222.5c0,0,12.9-3.4,24.4-15.4"/>
			<path class="st2" d="M120.9,219.3"/>
		</g>
		<ellipse class="st3" cx="256.1" cy="374.1" rx="88.1" ry="46.5"/>
		<ellipse id="body" class="st4" cx="256.2" cy="225.6" rx="91.3" ry="128"/>
		<g>
			<ellipse cx="210" cy="167" rx="14.3" ry="18.2"/>
			<ellipse class="st5" cx="214.3" cy="160.8" rx="7.1" ry="9.1"/>
		</g>
		<g>
			<ellipse cx="307.3" cy="167" rx="14.3" ry="18.2"/>
			<ellipse class="st5" cx="311.5" cy="160.8" rx="7.1" ry="9.1"/>
		</g>
		<g>
			<line class="st6" x1="301.7" y1="325.1" x2="307.7" y2="387.1"/>
			<line class="st6" x1="305.7" y1="368.1" x2="317.7" y2="382.1"/>
		</g>
		<g>
			<line class="st6" x1="209.7" y1="325.1" x2="203.7" y2="387.1"/>
			<line class="st6" x1="205.7" y1="368.1" x2="193.7" y2="382.1"/>
		</g>
		<ellipse cx="317.2" cy="382.1" rx="17" ry="11.5"/>
		<ellipse cx="196.2" cy="382.1" rx="17" ry="11.5"/>
		<path class="st2" d="M335.6,161.7"/>
		<g>
			<circle class="st7" cx="198.2" cy="262.7" r="8.5"/>
			<circle class="st7" cx="222.2" cy="284.7" r="8.5"/>
			<circle class="st7" cx="198.2" cy="302.7" r="8.5"/>
			<circle class="st7" cx="311.2" cy="262.7" r="8.5"/>
			<circle class="st7" cx="287.2" cy="284.7" r="8.5"/>
			<circle class="st7" cx="240" cy="255.9" r="8.5"/>
			<circle class="st7" cx="280" cy="253.9" r="8.5"/>
			<circle class="st7" cx="258" cy="283.9" r="8.5"/>
			<circle class="st7" cx="240.5" cy="303.9" r="8.5"/>
			<circle class="st7" cx="282" cy="305.9" r="8.5"/>
			<circle class="st7" cx="311.2" cy="302.7" r="8.5"/>
		</g>
	</g>
	<g>
		<g>
			<path class="st8" d="M365.8,352.9c0,0-18-32-43-42"/>
			<path class="st8" d="M373.8,342.4c0,0-8.4-3.5-20.1-6"/>
		</g>
		<ellipse cx="363" cy="345.4" rx="17" ry="11.5"/>
	</g>
	<g>
		<g>
			<path class="st8" d="M147.7,352.9c0,0,18-32,43-42"/>
			<path class="st8" d="M139.7,342.4c0,0,8.4-3.5,20.1-6"/>
		</g>
		<ellipse cx="142" cy="347.4" rx="17" ry="11.5"/>
	</g>
	<g>
		<g>
			<path class="st8" d="M380.8,312.9c0,0-18-32-43-42"/>
			<path class="st8" d="M388.8,302.4c0,0-8.4-3.5-20.1-6"/>
		</g>
		<ellipse cx="378" cy="305.4" rx="17" ry="11.5"/>
	</g>
	<g>
		<g>
			<path class="st8" d="M137.7,312.9c0,0,18-32,43-42"/>
			<path class="st8" d="M129.7,302.4c0,0,8.4-3.5,20.1-6"/>
		</g>
		<ellipse cx="132" cy="307.4" rx="17" ry="11.5"/>
	</g>
	<path class="st0" d="M239.4,194.3c0,0,15.8,7.2,36.2,0"/>
</g>
</svg>
