<?xml version="1.0" encoding="utf-8"?>
<!-- Generator: Adobe Illustrator 23.0.3, SVG Export Plug-In . SVG Version: 6.00 Build 0)  -->
<svg version="1.1" id="Layer_1" xmlns="http://www.w3.org/2000/svg" xmlns:xlink="http://www.w3.org/1999/xlink" x="0px" y="0px"
	 viewBox="0 0 498 424" style="enable-background:new 0 0 498 424;" xml:space="preserve">
<style type="text/css">
	.st0{fill:#C1BFC0;stroke:#FFFFFF;}
	.st1{fill:none;stroke:#FFFFFF;}
	.st2{fill:#EDEDED;}
	.st3{fill:#FFFF00;stroke:#000000;}
	.st4{clip-path:url(#SVGID_2_);}
	.st5{fill:none;stroke:#000000;stroke-width:5;}
	.st6{fill:#FFFFFF;}
	.st7{fill:none;stroke:#000000;stroke-width:10;}
	.st8{fill:none;stroke:#000000;stroke-width:7;}
</style>
<g>
	<g>
		<g>
			<g>
				<path class="st0" d="M329.2,216.4c0,0,11,83,165.7-16c0,0,3.6-23-91.4-4.7c-95,18.3-73.4,2.4-73.4,2.4L329.2,216.4z"/>
				<path class="st0" d="M329.5,173.6c0,0,41.5-25.7,66.3-29.6c24.8-3.9,74.1-21.6,74.1-21.6s27.5,7.3,2.5,27.2
					c-25,19.8-57.5,41.4-139.8,37.2L329.5,173.6z"/>
			</g>
			<g>
				<path class="st1" d="M335.4,153.4"/>
				<path class="st1" d="M475.8,102.2"/>
				<path class="st1" d="M401.7,123.8"/>
			</g>
			<path class="st1" d="M344.7,174.3c0,0,88-6.7,134-46.7"/>
			<path class="st1" d="M363.3,155.8c0,0,2.5,15,15.5,13.5c0,0-10.5,13.5-1,16"/>
			<path class="st1" d="M381.8,146.8c0,0,4,18.3,25,16.5c0,0-12,14.5-1,17.5"/>
			<path class="st1" d="M405.3,141.8c0,0,3.8,15,23.5,13.5c0,0-5,16,4,17.5"/>
			<path class="st1" d="M430.8,134.8c0,0,3.7,11.7,23,10.5c0,0-3.5,14.5,4.5,14.5s8,0,8,0"/>
			<path class="st1" d="M449.8,128.3c0,0,3.1,7.8,19.5,7.1c0,0-2.5,6.9,4,11.9"/>
			<path class="st1" d="M342.4,216.4c0,0,35,31.1,152.5-15.9"/>
			<path class="st1" d="M372.4,201.4c0,0-1.5,25.5,18,25.5c0,0-26.1,4.4-12.7,22.4"/>
			<path class="st1" d="M343.7,203.4c0,0-1.5,20.9,18,20.9c0,0-26.1,3.6-12.7,18.4"/>
			<path class="st1" d="M397,197.3c-8.8,16.5,23.3,24.7,23.3,24.7s-22,15.3-8.7,22"/>
			<path class="st1" d="M424.3,194.7c0,0-4.7,20.7,18,22c0,0-12,13.3-5.3,15.3"/>
			<path class="st1" d="M447.7,191.3c0,0-3.3,20,21.3,18.7c0,0-11.3,6-6.7,9.3"/>
			<path class="st1" d="M470.3,188.3c0,0,2.7,17.6,12,16"/>
		</g>
		<g>
			<g>
				<path class="st0" d="M184.8,214.4c0,0-11,83-165.7-16c0,0-3.6-23,91.4-4.7c95,18.3,73.4,2.4,73.4,2.4L184.8,214.4z"/>
				<path class="st0" d="M184.5,171.5c0,0-41.5-25.7-66.3-29.6c-24.8-3.9-74.1-21.6-74.1-21.6s-27.5,7.3-2.5,27.2
					c25,19.8,57.5,41.4,139.8,37.2L184.5,171.5z"/>
			</g>
			<path class="st1" d="M169.3,172.2c0,0-88-6.7-134-46.7"/>
			<path class="st1" d="M150.6,153.7c0,0-2.5,15-15.5,13.5c0,0,10.5,13.5,1,16"/>
			<path class="st1" d="M132.1,144.7c0,0-4,18.3-25,16.5c0,0,12,14.5,1,17.5"/>
			<path class="st1" d="M108.6,139.7c0,0-3.8,15-23.5,13.5c0,0,5,16-4,17.5"/>
			<path class="st1" d="M83.1,132.7c0,0-3.7,11.7-23,10.5c0,0,3.5,14.5-4.5,14.5s-8,0-8,0"/>
			<path class="st1" d="M64.1,126.2c0,0-3.1,7.8-19.5,7.1c0,0,2.5,6.9-4,11.9"/>
			<path class="st1" d="M171.6,214.3c0,0-35,31.1-152.5-15.9"/>
			<path class="st1" d="M141.6,199.3c0,0,1.5,25.5-18,25.5c0,0,26.1,4.4,12.7,22.4"/>
			<path class="st1" d="M170.3,201.3c0,0,1.5,20.9-18,20.9c0,0,26.1,3.6,12.7,18.4"/>
			<path class="st1" d="M117,195.2c8.8,16.5-23.3,24.7-23.3,24.7s22,15.3,8.7,22"/>
			<path class="st1" d="M89.6,192.6c0,0,4.7,20.7-18,22c0,0,12,13.3,5.3,15.3"/>
			<path class="st1" d="M66.3,189.2c0,0,3.3,20-21.3,18.7c0,0,11.3,6,6.7,9.3"/>
			<path class="st1" d="M43.6,186.2c0,0-2.7,17.6-12,16"/>
		</g>
		<ellipse class="st2" cx="256.1" cy="373.4" rx="88.1" ry="46.5"/>
		<ellipse id="body" class="st3" cx="256.2" cy="224.9" rx="91.3" ry="128"/>
		<g>
			<g>
				<defs>
					<ellipse id="SVGID_1_" cx="256.2" cy="222.9" rx="91.3" ry="128"/>
				</defs>
				<clipPath id="SVGID_2_">
					<use xlink:href="#SVGID_1_"  style="overflow:visible;"/>
				</clipPath>
				<g class="st4">
					<path d="M160.9,195.1c0,0,73.9,70.2,188,0v15.5c-114.1,70.2-188,0-188,0L160.9,195.1L160.9,195.1z"/>
					<path d="M160.9,238.6c0,0,73.9,70.2,188,0v15.5c-114.1,70.2-188,0-188,0L160.9,238.6L160.9,238.6z"/>
				</g>
			</g>
		</g>
		<path class="st5" d="M239.2,191.5c0,0,15.8,7.2,36.2,0"/>
		<g>
			<ellipse cx="210" cy="166.3" rx="14.3" ry="18.2"/>
			<ellipse class="st6" cx="214.3" cy="160.1" rx="7.1" ry="9.1"/>
		</g>
		<g>
			<ellipse cx="307.3" cy="166.3" rx="14.3" ry="18.2"/>
			<ellipse class="st6" cx="311.6" cy="160.1" rx="7.1" ry="9.1"/>
		</g>
		<g>
			<line class="st7" x1="301.7" y1="324.4" x2="307.7" y2="386.4"/>
			<line class="st7" x1="305.7" y1="367.4" x2="317.7" y2="381.4"/>
		</g>
		<g>
			<line class="st7" x1="209.7" y1="324.4" x2="203.7" y2="386.4"/>
			<line class="st7" x1="205.7" y1="367.4" x2="193.7" y2="381.4"/>
		</g>
		<ellipse cx="317.2" cy="381.4" rx="17" ry="11.5"/>
		<ellipse cx="196.2" cy="381.4" rx="17" ry="11.5"/>
		<path class="st1" d="M335.6,161"/>
	</g>
	<g>
		<g>
			<path class="st8" d="M368,338.4c0,0-18-32-43-42"/>
			<path class="st8" d="M376,327.8c0,0-8.4-3.5-20.1-6"/>
		</g>
		<ellipse cx="365.2" cy="330.9" rx="17" ry="11.5"/>
	</g>
	<g>
		<g>
			<path class="st8" d="M143.9,338.4c0,0,18-32,43-42"/>
			<path class="st8" d="M135.9,327.8c0,0,8.4-3.5,20.1-6"/>
		</g>
		<ellipse cx="138.2" cy="332.9" rx="17" ry="11.5"/>
	</g>
	<g>
		<g>
			<path class="st8" d="M385,304.4c0,0-18-32-43-42"/>
			<path class="st8" d="M393,293.8c0,0-8.4-3.5-20.1-6"/>
		</g>
		<ellipse cx="382.2" cy="296.9" rx="17" ry="11.5"/>
	</g>
	<g>
		<g>
			<path class="st8" d="M130.9,298.4c0,0,18-32,43-42"/>
			<path class="st8" d="M122.9,287.8c0,0,8.4-3.5,20.1-6"/>
		</g>
		<ellipse cx="125.2" cy="292.9" rx="17" ry="11.5"/>
	</g>
</g>
</svg>
